<?xml version="1.0" encoding="utf-8"?>
<!DOCTYPE svg PUBLIC "-//W3C//DTD SVG 1.1//EN" "http://www.w3.org/Graphics/SVG/1.1/DTD/svg11.dtd">
<svg version="1.1" xmlns="http://www.w3.org/2000/svg" xmlns:xlink="http://www.w3.org/1999/xlink" x="0px" y="0px"
width="100%" height="100%" viewBox="0 0 623.1 692.3" enable-background="new 0 0 623.1 692.3"
xml:space="preserve">
<defs>
<script  xlink:href="http://www.wai2go.co.uk/RL3/lib_svg/js/jquery-1.7.1.min.js"/>
<script  xlink:href="http://www.wai2go.co.uk/RL3/lib_svg/js/SVGPan_admin.js"/>
</defs>
<g id = "viewport">
<polygon id = "L1" display="inline" fill="#FFFFE0" stroke="#FFFFF" stroke-width="" points="194.7,207.3 410.4,207.3 420.6,299.8 184.2,299.8"/>
<polygon id = "L2" display="inline" fill="#FFFFE0" stroke="#FFFFF" stroke-width="" points="245.8,97.6 208.6,97.6 207,111.5 246.3,111.5 246.3,150.2 358.2,150.2 358.2,111.6 397.9,111.6 396.5,97.6 360.6,97.6 360.6,76.4 245.9,76.4"/>
<polygon id = "L3" display="inline" fill="#FFFFE0" stroke="#FFFFF" stroke-width="" points="214.4,65.7 157.6,584.7 446.3,584.7 390.8,65.7 530.4,50.8 537.8,119.4 491,124.2 498,196.8 545.1,192.2 581.6,520.8 557.4,523.2 572.9,665.4 459,678.2 149.4,678.2 7.5,663.2 20.4,544.9 6.1,543.7 13.3,473.4 75.5,479.6 82.6,408.3 35.8,404.1 59.2,191.8 106.4,196.7 114,125 67.6,120.3 74.8,50.2"/>
<polygon id = "L4" display="inline" fill="#000000" stroke="#D3BF96" stroke-width="" points="350,207.3 350,254.5 411,254.5 406,207.3"/>
<polygon id = "L5" display="inline" fill="#000000" stroke="#D3BF96" stroke-width="" points="325.7,207.3 350,207.3 350,254.5 318.9,254.5 318.9,240.4 325.5,240.4"/>
<polygon id = "L6" display="inline" fill="#000000" stroke="#D3BF96" stroke-width="" points="302.3,207.3 325.7,207.3 325.5,240.4 302.3,240.4"/>
<polygon id = "L7" display="inline" fill="#000000" stroke="#D3BF96" stroke-width="" points="255.6,207.3 255.6,254.5 286.9,254.5 286.9,240.4 280.3,240.4 280.3,207.3"/>
<polygon id = "L8" display="inline" fill="#000000" stroke="#D3BF96" stroke-width="" points="198.9,207.3 231,207.3 231,254.5 193.7,254.5"/>
<polygon id = "L9" display="inline" fill="#000000" stroke="#D3BF96" stroke-width="" points="209,299.8 209,268.3 192.2,268.3 188.8,299.8"/>
<polygon id = "L10" display="inline" fill="#000000" stroke="#D3BF96" stroke-width="" points="274.1,299.8 251.6,299.8 251.6,268.3 274.1,268.1"/>
<polygon id = "L11" display="inline" fill="#000000" stroke="#D3BF96" stroke-width="" points="293.8,299.8 293.8,268.3 274.1,268.1 274.1,299.8"/>
<polygon id = "L12" display="inline" fill="#000000" stroke="#D3BF96" stroke-width="" points="314.1,299.8 314.1,268.1 293.8,268.3 293.8,299.8"/>
<polygon id = "L13" display="inline" fill="#000000" stroke="#D3BF96" stroke-width="" points="333.7,299.8 333.7,268.3 314.1,268.1 314.1,299.8"/>
<polygon id = "L14" display="inline" fill="#000000" stroke="#D3BF96" stroke-width="" points="450.8,632 456.2,678.2 432.7,678.2 432.7,632"/>
<polygon id = "L15" display="inline" fill="#000000" stroke="#D3BF96" stroke-width="" points="152.7,646.1 149.4,678.2 173.9,678.2 173.9,646.1"/>
<polygon id = "L16" display="inline" fill="#000000" stroke="#D3BF96" stroke-width="" points="158.4,105.7 152.8,154.7 204,161 209.4,111.5"/>
<polygon id = "L17" display="inline" fill="#000000" stroke="#D3BF96" stroke-width="" points="150.2,178.2 147.7,199.7 199.1,205.2 201.5,183.6"/>
<polygon id = "L18" display="inline" fill="#000000" stroke="#D3BF96" stroke-width="" points="204,161 152.8,154.7 150.2,178.2 201.5,183.6"/>
<polygon id = "L19" display="inline" fill="#000000" stroke="#D3BF96" stroke-width="" points="106.4,196.7 135.1,199.6 137.1,180.3 108.4,177.6"/>
<polygon id = "L20" display="inline" fill="#000000" stroke="#D3BF96" stroke-width="" points="111.3,150.5 108.4,177.6 137.1,180.3 139.8,153.4"/>
<polygon id = "L21" display="inline" fill="#000000" stroke="#D3BF96" stroke-width="" points="142.4,127.6 114,125 111.3,150.5 139.8,153.4"/>
<polygon id = "L22" display="inline" fill="#000000" stroke="#D3BF96" stroke-width="" points="147.7,199.7 142,249.4 169.5,252.1 174.3,202.5"/>
<polygon id = "L23" display="inline" fill="#000000" stroke="#D3BF96" stroke-width="" points="199.1,205.2 174.3,202.5 169.5,252.1 193.7,254.5"/>
<polygon id = "L24" display="inline" fill="#000000" stroke="#D3BF96" stroke-width="" points="214.4,65.7 168.7,60.6 166.4,91.9 211.1,96.2"/>
<polygon id = "L25" display="inline" fill="#000000" stroke="#D3BF96" stroke-width="" points="150.3,58.6 147.7,90.1 166.4,91.9 168.7,60.6"/>
<polygon id = "L26" display="inline" fill="#000000" stroke="#D3BF96" stroke-width="" points="74.8,50.2 71.5,82.7 95.6,85.1 96.3,77.5 91.2,77.1 93.7,52.3"/>
<polygon id = "L27" display="inline" fill="#000000" stroke="#D3BF96" stroke-width="" points="91.2,77.1 110,78.7 112.2,54.3 93.7,52.3"/>
<polygon id = "L28" display="inline" fill="#000000" stroke="#D3BF96" stroke-width="" points="112.2,54.3 109.4,86.3 128.8,88.2 132.2,56.6"/>
<polygon id = "L29" display="inline" fill="#000000" stroke="#D3BF96" stroke-width="" points="132.2,56.6 128.8,88.2 147.7,90.1 150.3,58.6"/>
<polygon id = "L30" display="inline" fill="#000000" stroke="#D3BF96" stroke-width="" points="431.7,129.1 398,132.8 400,151.9 433.7,148.5"/>
<polygon id = "L31" display="inline" fill="#000000" stroke="#D3BF96" stroke-width="" points="433.7,148.5 400,151.9 402,170.8 435.7,167.3"/>
<polygon id = "L32" display="inline" fill="#000000" stroke="#D3BF96" stroke-width="" points="429.7,109.8 395.9,113.3 398,132.8 431.7,129.1"/>
<polygon id = "L33" display="inline" fill="#000000" stroke="#D3BF96" stroke-width="" points="408.8,234 411,254.5 444.5,251.1 442.4,231.1"/>
<polygon id = "L34" display="inline" fill="#000000" stroke="#D3BF96" stroke-width="" points="437.6,185.5 404,188.9 408.8,234 442.4,231.1"/>
<polygon id = "L35" display="inline" fill="#000000" stroke="#D3BF96" stroke-width="" points="435.7,167.3 402,170.8 404,188.9 437.6,185.5"/>
<polygon id = "L36" display="inline" fill="#000000" stroke="#D3BF96" stroke-width="" points="390.8,65.7 422.5,62.3 425.6,93.5 418,94.3 417.1,86.3 393.2,88.5"/>
<polygon id = "L37" display="inline" fill="#000000" stroke="#D3BF96" stroke-width="" points="422.5,62.3 425.6,93.5 464.2,89.4 461.1,58.2"/>
<polygon id = "L38" display="inline" fill="#000000" stroke="#D3BF96" stroke-width="" points="484.9,55.7 461.1,58.2 464.2,89.4 488.1,86.9"/>
<polygon id = "L39" display="inline" fill="#000000" stroke="#D3BF96" stroke-width="" points="511.1,84.4 507.9,53.2 484.9,55.7 488.1,86.9"/>
<polygon id = "L40" display="inline" fill="#000000" stroke="#D3BF96" stroke-width="" points="530.4,50.8 507.9,53.2 512.9,101.2 535.6,99.2"/>
<polygon id = "L41" display="inline" fill="#000000" stroke="#D3BF96" stroke-width="" points="537.8,119.4 535.6,99.2 512.9,101.2 515.1,121.7"/>
<polygon id = "L42" display="inline" fill="#000000" stroke="#D3BF96" stroke-width="" points="491,124.2 443.8,129.1 446.8,155 493.5,149.8"/>
<polygon id = "L43" display="inline" fill="#000000" stroke="#D3BF96" stroke-width="" points="498,196.8 493.5,149.8 446.8,155 452,201.2"/>
<polygon id = "L44" display="inline" fill="#000000" stroke="#D3BF96" stroke-width="" points="499.9,123.2 498,105.1 460.2,108.9 462,127.2"/>
<polygon id = "L45" display="inline" fill="#000000" stroke="#D3BF96" stroke-width="" points="443.8,129.1 462,127.2 459.6,103.2 441.2,105.1"/>
<polygon id = "L46" display="inline" fill="#000000" stroke="#D3BF96" stroke-width="" points="141.3,443.9 172.6,447.3 175,425.2 143.7,421.8"/>
<polygon id = "L47" display="inline" fill="#000000" stroke="#D3BF96" stroke-width="" points="143.7,421.8 175,425.2 176.9,408.1 145.5,404.7"/>
<polygon id = "L48" display="inline" fill="#000000" stroke="#D3BF96" stroke-width="" points="139.3,463 170.5,466.4 172.6,447.3 141.3,443.9"/>
<polygon id = "L49" display="inline" fill="#000000" stroke="#D3BF96" stroke-width="" points="136.9,485.2 168.1,488.9 170.5,466.4 139.3,463"/>
<polygon id = "L50" display="inline" fill="#000000" stroke="#D3BF96" stroke-width="" points="145.5,404.7 176.9,408.1 179,389.1 147.6,385.7"/>
<polygon id = "L51" display="inline" fill="#000000" stroke="#D3BF96" stroke-width="" points="154.9,316.7 151.9,345.2 183.4,348.6 186.5,320.1"/>
<polygon id = "L52" display="inline" fill="#000000" stroke="#D3BF96" stroke-width="" points="190.1,287.7 158.4,284.3 154.9,316.7 186.5,320.1"/>
<polygon id = "L53" display="inline" fill="#000000" stroke="#D3BF96" stroke-width="" points="192.2,268.3 160.5,264.8 158.4,284.3 190.1,287.7"/>
<polygon id = "L54" display="inline" fill="#000000" stroke="#D3BF96" stroke-width="" points="147.6,385.7 179,389.1 183.4,348.6 151.9,345.2"/>
<polygon id = "L55" display="inline" fill="#000000" stroke="#D3BF96" stroke-width="" points="42.3,345.2 75.6,348.6 77.7,328.5 44.5,324.9"/>
<polygon id = "L56" display="inline" fill="#000000" stroke="#D3BF96" stroke-width="" points="46.8,304.1 79.9,307.8 82.2,286 49.2,282.4"/>
<polygon id = "L57" display="inline" fill="#000000" stroke="#D3BF96" stroke-width="" points="44.5,324.9 77.7,328.5 79.9,307.8 46.8,304.1"/>
<polygon id = "L58" display="inline" fill="#000000" stroke="#D3BF96" stroke-width="" points="51.4,262.2 49.2,282.4 82.2,286 84.4,265.8"/>
<polygon id = "L59" display="inline" fill="#000000" stroke="#D3BF96" stroke-width="" points="86.7,243.3 53.9,239.8 51.4,262.2 84.4,265.8"/>
<polygon id = "L60" display="inline" fill="#000000" stroke="#D3BF96" stroke-width="" points="53.9,239.8 101.8,244.9 104.3,220.8 56.5,215.9"/>
<polygon id = "L61" display="inline" fill="#000000" stroke="#D3BF96" stroke-width="" points="59.2,191.8 56.5,215.9 115.3,222 117.7,197.8"/>
<polygon id = "L62" display="inline" fill="#000000" stroke="#D3BF96" stroke-width="" points="135.1,199.6 117.7,197.8 112.8,246 130,247.5"/>
<polygon id = "L63" display="inline" fill="#000000" stroke="#D3BF96" stroke-width="" points="75.5,479.6 98.2,481.7 100.3,459 125.3,461.2 126.5,449.8 79,444.7"/>
<polygon id = "L64" display="inline" fill="#000000" stroke="#D3BF96" stroke-width="" points="145.5,274.1 96.4,269.3 94.2,291.4 143.1,296.7"/>
<polygon id = "L65" display="inline" fill="#000000" stroke="#D3BF96" stroke-width="" points="84.8,386.5 79,444.7 126.5,449.8 132.8,391.6"/>
<polygon id = "L66" display="inline" fill="#000000" stroke="#D3BF96" stroke-width="" points="143.1,296.7 94.2,291.4 84.8,386.5 132.8,391.6"/>
<polygon id = "L67" display="inline" fill="#000000" stroke="#D3BF96" stroke-width="" points="42.3,345.2 88.4,349.8 82.6,408.3 35.8,404.1"/>
<polygon id = "L68" display="inline" fill="#000000" stroke="#D3BF96" stroke-width="" points="84.2,522.4 88.7,480.8 13.3,473.4 7.5,530.1 63.2,536.5 64.9,520.3"/>
<polygon id = "L69" display="inline" fill="#000000" stroke="#D3BF96" stroke-width="" points="84.2,522.4 64.9,520.3 63.2,536.5 82.5,538.7"/>
<polygon id = "L70" display="inline" fill="#000000" stroke="#D3BF96" stroke-width="" points="127.4,543.4 161.7,547.1 163.9,527.2 129.7,523.3"/>
<polygon id = "L71" display="inline" fill="#000000" stroke="#D3BF96" stroke-width="" points="131.8,504.6 129.7,523.3 163.9,527.2 165.9,508.6"/>
<polygon id = "L72" display="inline" fill="#000000" stroke="#D3BF96" stroke-width="" points="168.1,488.9 124.4,483.7 122,503.4 131.8,504.6 165.9,508.6"/>
<polygon id = "L73" display="inline" fill="#000000" stroke="#D3BF96" stroke-width="" points="20,548.8 7.5,663.2 74.7,670.3 86.5,556.4"/>
<polygon id = "L74" display="inline" fill="#000000" stroke="#D3BF96" stroke-width="" points="86.6,556.4 101.5,558.1 97.9,592.9 82.9,591.4"/>
<polygon id = "L75" display="inline" fill="#000000" stroke="#D3BF96" stroke-width="" points="82.9,591.4 142.5,597.5 141.8,605.2 156.6,606.6 149.4,678.2 74.7,670.3"/>
<polygon id = "L76" display="inline" fill="#000000" stroke="#D3BF96" stroke-width="" points="101.3,559.7 122.4,561.8 118.8,595.1 97.9,592.9"/>
<polygon id = "L77" display="inline" fill="#000000" stroke="#D3BF96" stroke-width="" points="122.4,561.8 146.2,564.3 143.6,588.8 119.7,586.4"/>
<polygon id = "L78" display="inline" fill="#000000" stroke="#D3BF96" stroke-width="" points="525.9,194.1 452,201.2 457.5,248 504.9,242.8 503.7,231.9 516.3,230.7 529.6,229.4"/>
<polygon id = "L79" display="inline" fill="#000000" stroke="#D3BF96" stroke-width="" points="545.1,192.2 525.9,194.1 529.6,229.4 516.3,230.7 517,239.3 550,236.2"/>
<polygon id = "L80" display="inline" fill="#000000" stroke="#D3BF96" stroke-width="" points="453.3,340.1 420.5,343.5 424.5,380.7 457.3,377.3"/>
<polygon id = "L81" display="inline" fill="#000000" stroke="#D3BF96" stroke-width="" points="457.3,377.3 424.5,380.7 427,404 459.8,400.6"/>
<polygon id = "L82" display="inline" fill="#000000" stroke="#D3BF96" stroke-width="" points="451.2,321.1 418.4,324.5 420.5,343.5 453.3,340.1"/>
<polygon id = "L83" display="inline" fill="#000000" stroke="#D3BF96" stroke-width="" points="448.5,296.4 415.8,299.8 418.4,324.5 451.2,321.1"/>
<polygon id = "L84" display="inline" fill="#000000" stroke="#D3BF96" stroke-width="" points="459.8,400.6 427,404 429.5,427.7 462.4,424.3"/>
<polygon id = "L85" display="inline" fill="#000000" stroke="#D3BF96" stroke-width="" points="433.7,467.2 436.2,490.6 469.2,487.1 466.7,463.8"/>
<polygon id = "L86" display="inline" fill="#000000" stroke="#D3BF96" stroke-width="" points="462.4,424.3 429.5,427.7 433.7,467.2 466.7,463.8"/>
<polygon id = "L87" display="inline" fill="#000000" stroke="#D3BF96" stroke-width="" points="396.8,268.3 396.8,299.8 415.8,299.8 448.5,296.4 445.2,264.9 412.5,268.3"/>
<polygon id = "L88" display="inline" fill="#000000" stroke="#D3BF96" stroke-width="" points="563.5,358 558.1,309.1 512.1,314.3 517.6,362.8"/>
<polygon id = "L89" display="inline" fill="#000000" stroke="#D3BF96" stroke-width="" points="522.2,286.2 521.4,279.2 508.3,280.8 512.1,314.3 558.1,309.1 555.2,283.1"/>
<polygon id = "L90" display="inline" fill="#000000" stroke="#D3BF96" stroke-width="" points="555.2,283.1 550,236.2 517,239.3 521.4,279.2 522.2,286.2"/>
<polygon id = "L91" display="inline" fill="#000000" stroke="#D3BF96" stroke-width="" points="509.4,290.5 463.7,295.5 471.4,367.3 517.6,362.8"/>
<polygon id = "L92" display="inline" fill="#000000" stroke="#D3BF96" stroke-width="" points="517.6,362.8 471.4,367.3 476,409.7 522,405.3"/>
<polygon id = "L93" display="inline" fill="#000000" stroke="#D3BF96" stroke-width="" points="522,405.3 476,409.7 480.5,451.3 504.4,449 505.2,457 527.2,454.9"/>
<polygon id = "L94" display="inline" fill="#000000" stroke="#D3BF96" stroke-width="" points="567.4,392.8 534.5,396.5 536.4,414.4 569.4,410.7"/>
<polygon id = "L95" display="inline" fill="#000000" stroke="#D3BF96" stroke-width="" points="565.5,375.5 532.6,379.3 534.5,396.5 567.4,392.8"/>
<polygon id = "L96" display="inline" fill="#000000" stroke="#D3BF96" stroke-width="" points="563.5,358 530.7,361.4 532.6,379.3 565.5,375.5"/>
<polygon id = "L97" display="inline" fill="#000000" stroke="#D3BF96" stroke-width="" points="571.4,429.3 538.4,433 540.8,454.9 573.9,451.1"/>
<polygon id = "L98" display="inline" fill="#000000" stroke="#D3BF96" stroke-width="" points="576.4,474.2 573.9,451.1 540.8,454.9 543.3,477.9"/>
<polygon id = "L99" display="inline" fill="#000000" stroke="#D3BF96" stroke-width="" points="569.4,410.7 536.4,414.4 538.4,433 571.4,429.3"/>
<polygon id = "L100" display="inline" fill="#000000" stroke="#D3BF96" stroke-width="" points="483.5,485.6 436.2,490.6 443.9,562.1 491.3,556.4"/>
<polygon id = "L101" display="inline" fill="#000000" stroke="#D3BF96" stroke-width="" points="443.9,562.1 446.3,584.7 493.9,579.1 491.3,556.4"/>
<polygon id = "L102" display="inline" fill="#000000" stroke="#D3BF96" stroke-width="" points="533.3,526.2 557.4,523.2 556.2,511.7 532,514.5"/>
<polygon id = "L103" display="inline" fill="#000000" stroke="#D3BF96" stroke-width="" points="565.7,493.7 530,497.8 532,514.5 556.2,511.7 568,510.5"/>
<polygon id = "L104" display="inline" fill="#000000" stroke="#D3BF96" stroke-width="" points="563.3,475.6 527.9,479.7 530,497.8 565.7,493.7"/>
<polygon id = "L105" display="inline" fill="#000000" stroke="#D3BF96" stroke-width="" points="562.9,574.1 539.3,576.4 536.3,550.3 513.8,552.9 520.1,600.9 448,609 450.8,632 456.2,678.2 496.6,674 495.2,662.2 525,658.9 526.2,670.7 572.9,665.4"/>
<polygon id = "L106" display="inline" fill="#000000" stroke="#D3BF96" stroke-width="" points="509.4,290.5 508.3,280.8 506.8,269.1 459.8,274.1 462.1,295.7 463.7,295.5"/>
<polygon id = "L107" display="inline" fill="#000000" stroke="#D3BF96" stroke-width="" points="475.5,257.4 476.9,272.3 459.8,274.1 458.1,259.3"/>
<polygon id = "L108" display="inline" fill="#000000" stroke="#D3BF96" stroke-width="" points="69.8,99.4 93.6,102 91.2,122.7 67.6,120.3"/>
<polygon id = "L109" display="inline" fill="#000000" stroke="#D3BF96" stroke-width="" points="108.2,103.6 106.1,124.2 142.4,127.6 144.8,107.4"/>
<polygon id = "L110" display="inline" fill="#000000" stroke="#D3BF96" stroke-width="" points="245.9,76.4 314.9,76.4 314.9,99.4 245.9,99.4"/>
<polygon id = "L111" display="inline" fill="#000000" stroke="#D3BF96" stroke-width="" points="314.9,76.4 337.8,76.4 337.8,99.4 314.9,99.4"/>
<polygon id = "L112" display="inline" fill="#000000" stroke="#D3BF96" stroke-width="" points="337.8,76.4 360.7,76.4 360.7,99.4 337.8,99.4"/>
<polygon id = "L113" display="inline" fill="#000000" stroke="#D3BF96" stroke-width="" points="246.3,106.9 280.1,106.9 280.1,150.2 246.3,150.2"/>
<polygon id = "L114" display="inline" fill="#000000" stroke="#D3BF96" stroke-width="" points="280.2,106.9 329.8,106.9 329.8,150.2 280.2,150.2"/>
<polygon id = "L115" display="inline" fill="#000000" stroke="#D3BF96" stroke-width="" points="329.8,128.5 358.2,128.5 358.2,150.1 329.8,150.1"/>
<polygon id = "L116" display="inline" fill="#000000" stroke="#D3BF96" stroke-width="" points="338.3,109.8 358.2,109.8 358.2,128.6 338.3,128.6"/>
<polygon id = "L117" display="inline" fill="#000000" stroke="#D3BF96" stroke-width="" points="280.3,207.3 302.3,207.3 302.3,240.4 280.3,240.4"/>
<polygon id = "L118" display="inline" fill="#000000" stroke="#D3BF96" stroke-width="" points="231,207.3 255.7,207.3 255.7,254.6 231,254.6"/>
<polygon id = "L119" display="inline" fill="#000000" stroke="#D3BF96" stroke-width="" points="209,268.3 231,268.3 231,299.8 209,299.8"/>
<polygon id = "L120" display="inline" fill="#000000" stroke="#D3BF96" stroke-width="" points="231,268.3 251.7,268.3 251.7,299.8 231,299.8"/>
<polygon id = "L121" display="inline" fill="#000000" stroke="#D3BF96" stroke-width="" points="333.7,268.3 374.6,268.3 374.6,299.8 333.7,299.8"/>
<polygon id = "L122" display="inline" fill="#000000" stroke="#D3BF96" stroke-width="" points="374.6,268.3 396.8,268.3 396.8,299.8 374.6,299.8"/>
<polygon id = "L123" display="inline" fill="#000000" stroke="#D3BF96" stroke-width="" points="173.9,584.7 196.8,584.7 196.8,630.7 173.9,630.7"/>
<polygon id = "L124" display="inline" fill="#000000" stroke="#D3BF96" stroke-width="" points="196.8,584.7 225.6,584.7 225.6,630.7 196.8,630.7"/>
<polygon id = "L125" display="inline" fill="#000000" stroke="#D3BF96" stroke-width="" points="225.6,584.7 247.9,584.7 247.9,615.6 225.6,615.6"/>
<polygon id = "L126" display="inline" fill="#000000" stroke="#D3BF96" stroke-width="" points="247.9,584.7 270.6,584.7 270.6,615.6 247.9,615.6"/>
<polygon id = "L127" display="inline" fill="#000000" stroke="#D3BF96" stroke-width="" points="270.5,584.7 294.4,584.7 294.4,630.7 270.5,630.7"/>
<polygon id = "L128" display="inline" fill="#000000" stroke="#D3BF96" stroke-width="" points="294.4,584.7 322.5,584.7 322.5,630.7 294.4,630.7"/>
<polygon id = "L129" display="inline" fill="#000000" stroke="#D3BF96" stroke-width="" points="322.5,584.7 343.7,584.7 343.7,616.4 322.5,616.4"/>
<polygon id = "L130" display="inline" fill="#000000" stroke="#D3BF96" stroke-width="" points="343.7,584.7 365.9,584.7 365.9,616.4 343.7,616.4"/>
<polygon id = "L131" display="inline" fill="#000000" stroke="#D3BF96" stroke-width="" points="365.9,584.7 388.7,584.7 388.7,616.4 365.9,616.4"/>
<polygon id = "L132" display="inline" fill="#000000" stroke="#D3BF96" stroke-width="" points="388.8,584.7 410.1,584.7 410.1,616.4 388.8,616.4"/>
<polygon id = "L133" display="inline" fill="#000000" stroke="#D3BF96" stroke-width="" points="410.1,584.7 433.6,584.7 433.6,616.4 410.1,616.4"/>
<polygon id = "L134" display="inline" fill="#000000" stroke="#D3BF96" stroke-width="" points="173.9,646.1 195.5,646.1 195.5,678.2 173.9,678.2"/>
<polygon id = "L135" display="inline" fill="#000000" stroke="#D3BF96" stroke-width="" points="195.5,646.1 219.3,646.1 219.3,678.2 195.5,678.2"/>
<polygon id = "L136" display="inline" fill="#000000" stroke="#D3BF96" stroke-width="" points="219.3,646.1 243.3,646.1 243.3,678.2 219.3,678.2"/>
<polygon id = "L137" display="inline" fill="#000000" stroke="#D3BF96" stroke-width="" points="243.3,646.1 266.7,646.1 266.7,678.2 243.3,678.2"/>
<polygon id = "L138" display="inline" fill="#000000" stroke="#D3BF96" stroke-width="" points="266.7,646.1 290.8,646.1 290.8,678.2 266.7,678.2"/>
<polygon id = "L139" display="inline" fill="#000000" stroke="#D3BF96" stroke-width="" points="290.8,646.1 314,646.1 314,678.2 290.8,678.2"/>
<polygon id = "L140" display="inline" fill="#000000" stroke="#D3BF96" stroke-width="" points="314,646.1 337.5,646.1 337.5,678.2 314,678.2"/>
<polygon id = "L141" display="inline" fill="#000000" stroke="#D3BF96" stroke-width="" points="337.5,646.1 361.1,646.1 361.1,678.2 337.5,678.2"/>
<polygon id = "L142" display="inline" fill="#000000" stroke="#D3BF96" stroke-width="" points="361.1,632 408.9,632 408.9,678.2 361.1,678.2"/>
<polygon id = "L143" display="inline" fill="#000000" stroke="#D3BF96" stroke-width="" points="408.9,632 432.7,632 432.7,678.2 408.9,678.2"/>
v;421;420.8;655.1;l;143;;;;
</g></svg>