<?xml version="1.0" encoding="utf-8"?>
<!-- Generator: Adobe Illustrator 19.2.1, SVG Export Plug-In . SVG Version: 6.00 Build 0)  -->
<svg version="1.1" id="Layer_1" xmlns="http://www.w3.org/2000/svg" xmlns:xlink="http://www.w3.org/1999/xlink" x="0px" y="0px"
	 viewBox="0 0 623.1 692.3" style="enable-background:new 0 0 623.1 692.3;" xml:space="preserve">
<style type="text/css">
	.st0{fill:none;stroke:#8BD8C0;stroke-miterlimit:10;}
	.st1{fill:none;stroke:#943500;stroke-width:0.25;stroke-miterlimit:10;}
	.st2{fill:none;stroke:#943500;stroke-width:0.25;stroke-linecap:round;stroke-linejoin:round;stroke-miterlimit:10;}
	.st3{fill:#FF7F00;}
	.st4{font-family:'ArialMT';}
	.st5{font-size:1.0073px;}
	.st6{fill:none;stroke:#FF7F00;stroke-width:0.7087;stroke-linecap:round;stroke-linejoin:round;}
	.st7{fill:none;stroke:#FF7F00;stroke-width:0.25;stroke-linecap:round;stroke-linejoin:round;}
	.st8{font-size:1.0074px;}
	.st9{fill:none;stroke:#26FF15;stroke-miterlimit:10;}
	.st10{fill:none;stroke:#3FFF00;stroke-width:0.7087;stroke-linecap:round;stroke-linejoin:round;stroke-miterlimit:10;}
	.st11{fill:#FF00BF;}
	.st12{font-size:0.5369px;}
	.st13{fill:none;stroke:#FF00BF;stroke-width:4.300000e-03;stroke-linecap:round;stroke-linejoin:round;stroke-miterlimit:10;}
</style>
<image style="overflow:visible;enable-background:new    ;" width="958" height="514" xlink:href="Screen Shot 2016-05-16 at 12.43.19.jpg"  transform="matrix(0.65 0 0 0.65 2.76 0)">
</image>
<image style="overflow:visible;enable-background:new    ;" width="898" height="798" xlink:href="UEssex11.png"  transform="matrix(0.6496 0 0 0.6496 6.0713 175.6684)">
</image>
<g id="perimeter-w2g">
	<polygon class="st0" points="194.7,207.3 410.4,207.3 420.6,299.8 184.2,299.8 	"/>
	<polygon class="st0" points="245.8,97.6 208.6,97.6 207,111.5 246.3,111.5 246.3,150.2 358.2,150.2 358.2,111.6 397.9,111.6 
		396.5,97.6 360.6,97.6 360.6,76.4 245.9,76.4 	"/>
	<polygon class="st0" points="214.4,65.7 157.6,584.7 446.3,584.7 390.8,65.7 530.4,50.8 537.8,119.4 491,124.2 498,196.8 
		545.1,192.2 581.6,520.8 557.4,523.2 572.9,665.4 459,678.2 149.4,678.2 7.5,663.2 20.4,544.9 6.1,543.7 13.3,473.4 75.5,479.6 
		82.6,408.3 35.8,404.1 59.2,191.8 106.4,196.7 114,125 67.6,120.3 74.8,50.2 	"/>
</g>
<g id="locations-w2g">
	<rect x="245.9" y="76.4" class="st1" width="69" height="23"/>
	<rect x="314.9" y="76.4" class="st1" width="22.9" height="23"/>
	<rect x="337.8" y="76.4" class="st1" width="22.9" height="23"/>
	<rect x="246.3" y="106.9" class="st1" width="33.8" height="43.3"/>
	<rect x="280.2" y="106.9" class="st1" width="49.6" height="43.3"/>
	<rect x="329.8" y="128.5" class="st1" width="28.4" height="21.6"/>
	<rect x="338.3" y="109.8" class="st1" width="19.9" height="18.8"/>
	<polygon class="st1" points="350,207.3 350,254.5 411,254.5 406,207.3 	"/>
	<polygon class="st1" points="325.7,207.3 350,207.3 350,254.5 318.9,254.5 318.9,240.4 325.5,240.4 	"/>
	<polygon class="st1" points="302.3,207.3 325.7,207.3 325.5,240.4 302.3,240.4 	"/>
	<rect x="280.3" y="207.3" class="st1" width="22" height="33.1"/>
	<polygon class="st1" points="255.6,207.3 255.6,254.5 286.9,254.5 286.9,240.4 280.3,240.4 280.3,207.3 	"/>
	<rect x="231" y="207.3" class="st1" width="24.7" height="47.3"/>
	<polygon class="st1" points="198.9,207.3 231,207.3 231,254.5 193.7,254.5 	"/>
	<polygon class="st1" points="209,299.8 209,268.3 192.2,268.3 188.8,299.8 	"/>
	<rect x="209" y="268.3" class="st1" width="22" height="31.5"/>
	<rect x="231" y="268.3" class="st1" width="20.7" height="31.5"/>
	<polygon class="st1" points="274.1,299.8 251.6,299.8 251.6,268.3 274.1,268.1 	"/>
	<polygon class="st1" points="293.8,299.8 293.8,268.3 274.1,268.1 274.1,299.8 	"/>
	<polygon class="st1" points="314.1,299.8 314.1,268.1 293.8,268.3 293.8,299.8 	"/>
	<polygon class="st1" points="333.7,299.8 333.7,268.3 314.1,268.1 314.1,299.8 	"/>
	<rect x="333.7" y="268.3" class="st1" width="40.9" height="31.5"/>
	<rect x="374.6" y="268.3" class="st1" width="22.2" height="31.5"/>
	<rect x="173.9" y="584.7" class="st1" width="22.9" height="46"/>
	<rect x="196.8" y="584.7" class="st1" width="28.8" height="46"/>
	<rect x="225.6" y="584.7" class="st1" width="22.3" height="30.9"/>
	<rect x="247.9" y="584.7" class="st1" width="22.7" height="30.9"/>
	<rect x="270.5" y="584.7" class="st1" width="23.9" height="46"/>
	<rect x="294.4" y="584.7" class="st1" width="28.1" height="46"/>
	<rect x="322.5" y="584.7" class="st1" width="21.2" height="31.7"/>
	<rect x="343.7" y="584.7" class="st1" width="22.2" height="31.7"/>
	<rect x="365.9" y="584.7" class="st1" width="22.8" height="31.7"/>
	<rect x="388.8" y="584.7" class="st1" width="21.3" height="31.7"/>
	<rect x="410.1" y="584.7" class="st1" width="23.5" height="31.7"/>
	<rect x="173.9" y="646.1" class="st1" width="21.6" height="32.1"/>
	<rect x="195.5" y="646.1" class="st1" width="23.8" height="32.1"/>
	<rect x="219.3" y="646.1" class="st1" width="24" height="32.1"/>
	<rect x="243.3" y="646.1" class="st1" width="23.4" height="32.1"/>
	<rect x="266.7" y="646.1" class="st1" width="24.1" height="32.1"/>
	<rect x="290.8" y="646.1" class="st1" width="23.2" height="32.1"/>
	<rect x="314" y="646.1" class="st1" width="23.5" height="32.1"/>
	<rect x="337.5" y="646.1" class="st1" width="23.6" height="32.1"/>
	<rect x="361.1" y="632" class="st1" width="47.8" height="46.2"/>
	<rect x="408.9" y="632" class="st1" width="23.8" height="46.2"/>
	<polygon class="st1" points="450.8,632 456.2,678.2 432.7,678.2 432.7,632 	"/>
	<polygon class="st1" points="152.7,646.1 149.4,678.2 173.9,678.2 173.9,646.1 	"/>
	<polygon class="st1" points="158.4,105.7 152.8,154.7 204,161 209.4,111.5 	"/>
	<polygon class="st1" points="150.2,178.2 147.7,199.7 199.1,205.2 201.5,183.6 	"/>
	<polygon class="st1" points="204,161 152.8,154.7 150.2,178.2 201.5,183.6 	"/>
	<polygon class="st1" points="106.4,196.7 135.1,199.6 137.1,180.3 108.4,177.6 	"/>
	<polygon class="st1" points="111.3,150.5 108.4,177.6 137.1,180.3 139.8,153.4 	"/>
	<polygon class="st1" points="142.4,127.6 114,125 111.3,150.5 139.8,153.4 	"/>
	<polygon class="st1" points="147.7,199.7 142,249.4 169.5,252.1 174.3,202.5 	"/>
	<polygon class="st1" points="199.1,205.2 174.3,202.5 169.5,252.1 193.7,254.5 	"/>
	<polygon class="st1" points="214.4,65.7 168.7,60.6 166.4,91.9 211.1,96.2 	"/>
	<polygon class="st1" points="150.3,58.6 147.7,90.1 166.4,91.9 168.7,60.6 	"/>
	<polygon class="st1" points="74.8,50.2 71.5,82.7 95.6,85.1 96.3,77.5 91.2,77.1 93.7,52.3 	"/>
	<polygon class="st1" points="91.2,77.1 110,78.7 112.2,54.3 93.7,52.3 	"/>
	<polygon class="st1" points="112.2,54.3 109.4,86.3 128.8,88.2 132.2,56.6 	"/>
	<polygon class="st1" points="132.2,56.6 128.8,88.2 147.7,90.1 150.3,58.6 	"/>
	<polygon class="st1" points="431.7,129.1 398,132.8 400,151.9 433.7,148.5 	"/>
	<polygon class="st1" points="433.7,148.5 400,151.9 402,170.8 435.7,167.3 	"/>
	<polygon class="st1" points="429.7,109.8 395.9,113.3 398,132.8 431.7,129.1 	"/>
	<polygon class="st1" points="408.8,234 411,254.5 444.5,251.1 442.4,231.1 	"/>
	<polygon class="st1" points="437.6,185.5 404,188.9 408.8,234 442.4,231.1 	"/>
	<polygon class="st1" points="435.7,167.3 402,170.8 404,188.9 437.6,185.5 	"/>
	<polygon class="st1" points="390.8,65.7 422.5,62.3 425.6,93.5 418,94.3 417.1,86.3 393.2,88.5 	"/>
	<polygon class="st1" points="422.5,62.3 425.6,93.5 464.2,89.4 461.1,58.2 	"/>
	<polygon class="st1" points="484.9,55.7 461.1,58.2 464.2,89.4 488.1,86.9 	"/>
	<polygon class="st1" points="511.1,84.4 507.9,53.2 484.9,55.7 488.1,86.9 	"/>
	<polygon class="st1" points="530.4,50.8 507.9,53.2 512.9,101.2 535.6,99.2 	"/>
	<polygon class="st1" points="537.8,119.4 535.6,99.2 512.9,101.2 515.1,121.7 	"/>
	<polygon class="st1" points="491,124.2 443.8,129.1 446.8,155 493.5,149.8 	"/>
	<polygon class="st1" points="498,196.8 493.5,149.8 446.8,155 452,201.2 	"/>
	<polygon class="st1" points="499.9,123.2 498,105.1 460.2,108.9 462,127.2 	"/>
	<polygon class="st1" points="443.8,129.1 462,127.2 459.6,103.2 441.2,105.1 	"/>
	<polygon class="st1" points="141.3,443.9 172.6,447.3 175,425.2 143.7,421.8 	"/>
	<polygon class="st1" points="143.7,421.8 175,425.2 176.9,408.1 145.5,404.7 	"/>
	<polygon class="st1" points="139.3,463 170.5,466.4 172.6,447.3 141.3,443.9 	"/>
	<polygon class="st1" points="136.9,485.2 168.1,488.9 170.5,466.4 139.3,463 	"/>
	<polygon class="st1" points="145.5,404.7 176.9,408.1 179,389.1 147.6,385.7 	"/>
	<polygon class="st1" points="154.9,316.7 151.9,345.2 183.4,348.6 186.5,320.1 	"/>
	<polygon class="st1" points="190.1,287.7 158.4,284.3 154.9,316.7 186.5,320.1 	"/>
	<polygon class="st1" points="192.2,268.3 160.5,264.8 158.4,284.3 190.1,287.7 	"/>
	<polygon class="st1" points="147.6,385.7 179,389.1 183.4,348.6 151.9,345.2 	"/>
	<polygon class="st1" points="42.3,345.2 75.6,348.6 77.7,328.5 44.5,324.9 	"/>
	<polygon class="st1" points="46.8,304.1 79.9,307.8 82.2,286 49.2,282.4 	"/>
	<polygon class="st1" points="44.5,324.9 77.7,328.5 79.9,307.8 46.8,304.1 	"/>
	<polygon class="st1" points="51.4,262.2 49.2,282.4 82.2,286 84.4,265.8 	"/>
	<polygon class="st1" points="86.7,243.3 53.9,239.8 51.4,262.2 84.4,265.8 	"/>
	<polygon class="st1" points="53.9,239.8 101.8,244.9 104.3,220.8 56.5,215.9 	"/>
	<polygon class="st1" points="59.2,191.8 56.5,215.9 115.3,222 117.7,197.8 	"/>
	<polygon class="st1" points="135.1,199.6 117.7,197.8 112.8,246 130,247.5 	"/>
	<polygon class="st1" points="75.5,479.6 98.2,481.7 100.3,459 125.3,461.2 126.5,449.8 79,444.7 	"/>
	<polygon class="st1" points="145.5,274.1 96.4,269.3 94.2,291.4 143.1,296.7 	"/>
	<polygon class="st1" points="84.8,386.5 79,444.7 126.5,449.8 132.8,391.6 	"/>
	<polygon class="st1" points="143.1,296.7 94.2,291.4 84.8,386.5 132.8,391.6 	"/>
	<polygon class="st1" points="42.3,345.2 88.4,349.8 82.6,408.3 35.8,404.1 	"/>
	<polygon class="st1" points="84.2,522.4 88.7,480.8 13.3,473.4 7.5,530.1 63.2,536.5 64.9,520.3 	"/>
	<polygon class="st1" points="84.2,522.4 64.9,520.3 63.2,536.5 82.5,538.7 	"/>
	<polygon class="st1" points="127.4,543.4 161.7,547.1 163.9,527.2 129.7,523.3 	"/>
	<polygon class="st1" points="131.8,504.6 129.7,523.3 163.9,527.2 165.9,508.6 	"/>
	<polygon class="st1" points="168.1,488.9 124.4,483.7 122,503.4 131.8,504.6 165.9,508.6 	"/>
	<polygon class="st1" points="20,548.8 7.5,663.2 74.7,670.3 86.5,556.4 	"/>
	<polygon class="st1" points="86.6,556.4 101.5,558.1 97.9,592.9 82.9,591.4 	"/>
	<polygon class="st1" points="82.9,591.4 142.5,597.5 141.8,605.2 156.6,606.6 149.4,678.2 74.7,670.3 	"/>
	<polygon class="st1" points="101.3,559.7 122.4,561.8 118.8,595.1 97.9,592.9 	"/>
	<polygon class="st1" points="122.4,561.8 146.2,564.3 143.6,588.8 119.7,586.4 	"/>
	<polygon class="st1" points="525.9,194.1 452,201.2 457.5,248 504.9,242.8 503.7,231.9 516.3,230.7 529.6,229.4 	"/>
	<polygon class="st1" points="545.1,192.2 525.9,194.1 529.6,229.4 516.3,230.7 517,239.3 550,236.2 	"/>
	<polygon class="st1" points="453.3,340.1 420.5,343.5 424.5,380.7 457.3,377.3 	"/>
	<polygon class="st1" points="457.3,377.3 424.5,380.7 427,404 459.8,400.6 	"/>
	<polygon class="st1" points="451.2,321.1 418.4,324.5 420.5,343.5 453.3,340.1 	"/>
	<polygon class="st1" points="448.5,296.4 415.8,299.8 418.4,324.5 451.2,321.1 	"/>
	<polygon class="st1" points="459.8,400.6 427,404 429.5,427.7 462.4,424.3 	"/>
	<polygon class="st1" points="433.7,467.2 436.2,490.6 469.2,487.1 466.7,463.8 	"/>
	<polygon class="st1" points="462.4,424.3 429.5,427.7 433.7,467.2 466.7,463.8 	"/>
	<polygon class="st1" points="396.8,268.3 396.8,299.8 415.8,299.8 448.5,296.4 445.2,264.9 412.5,268.3 	"/>
	<polygon class="st1" points="563.5,358 558.1,309.1 512.1,314.3 517.6,362.8 	"/>
	<polygon class="st1" points="522.2,286.2 521.4,279.2 508.3,280.8 512.1,314.3 558.1,309.1 555.2,283.1 	"/>
	<polygon class="st1" points="555.2,283.1 550,236.2 517,239.3 521.4,279.2 522.2,286.2 	"/>
	<polygon class="st1" points="509.4,290.5 463.7,295.5 471.4,367.3 517.6,362.8 	"/>
	<polygon class="st1" points="517.6,362.8 471.4,367.3 476,409.7 522,405.3 	"/>
	<polygon class="st1" points="522,405.3 476,409.7 480.5,451.3 504.4,449 505.2,457 527.2,454.9 	"/>
	<polygon class="st1" points="567.4,392.8 534.5,396.5 536.4,414.4 569.4,410.7 	"/>
	<polygon class="st1" points="565.5,375.5 532.6,379.3 534.5,396.5 567.4,392.8 	"/>
	<polygon class="st1" points="563.5,358 530.7,361.4 532.6,379.3 565.5,375.5 	"/>
	<polygon class="st1" points="571.4,429.3 538.4,433 540.8,454.9 573.9,451.1 	"/>
	<polygon class="st1" points="576.4,474.2 573.9,451.1 540.8,454.9 543.3,477.9 	"/>
	<polygon class="st1" points="569.4,410.7 536.4,414.4 538.4,433 571.4,429.3 	"/>
	<polygon class="st1" points="483.5,485.6 436.2,490.6 443.9,562.1 491.3,556.4 	"/>
	<polygon class="st1" points="443.9,562.1 446.3,584.7 493.9,579.1 491.3,556.4 	"/>
	<polygon class="st1" points="533.3,526.2 557.4,523.2 556.2,511.7 532,514.5 	"/>
	<polygon class="st1" points="565.7,493.7 530,497.8 532,514.5 556.2,511.7 568,510.5 	"/>
	<polygon class="st1" points="563.3,475.6 527.9,479.7 530,497.8 565.7,493.7 	"/>
	<polygon class="st1" points="562.9,574.1 539.3,576.4 536.3,550.3 513.8,552.9 520.1,600.9 448,609 450.8,632 456.2,678.2 
		496.6,674 495.2,662.2 525,658.9 526.2,670.7 572.9,665.4 	"/>
	<polygon class="st1" points="509.4,290.5 508.3,280.8 506.8,269.1 459.8,274.1 462.1,295.7 463.7,295.5 	"/>
	<polygon class="st1" points="475.5,257.4 476.9,272.3 459.8,274.1 458.1,259.3 	"/>
	<polygon class="st2" points="69.8,99.4 93.6,102 91.2,122.7 67.6,120.3 	"/>
	<polygon class="st2" points="108.2,103.6 106.1,124.2 142.4,127.6 144.8,107.4 	"/>
</g>
<g id="doors-w2g">
	<g id="ACAD_PROXY_ENTITY">
		<text transform="matrix(1.047155e-03 1 -1 1.047155e-03 308.13 269.62)" class="st3 st4 st5">Door45</text>
		<polyline class="st6" points="308.4,269.5 309,269.5 309,271.5 309,273.6 308.4,273.6 307.8,273.6 307.8,271.5 307.8,268.3 
			308.4,269.5 		"/>
		<line class="st6" x1="307.8" y1="269.5" x2="309" y2="273.6"/>
	</g>
	<g id="ACAD_PROXY_ENTITY-2">
		<text transform="matrix(1.047155e-03 1 -1 1.047155e-03 287.1984 269.42)" class="st3 st4 st5">Door45</text>
		<polyline class="st6" points="287.5,269.3 288,269.3 288,271.3 288,273.4 287.5,273.4 286.9,273.4 286.9,271.3 286.9,268.1 
			287.5,269.3 		"/>
		<line class="st6" x1="286.9" y1="269.3" x2="288" y2="273.4"/>
	</g>
	<g id="ACAD_PROXY_ENTITY-3">
		<text transform="matrix(1.047155e-03 1 -1 1.047155e-03 266.7394 269.42)" class="st3 st4 st5">Door45</text>
		<polyline class="st6" points="267,269.3 267.6,269.3 267.6,271.3 267.6,273.4 267,273.4 266.4,273.4 266.4,271.3 266.4,268.1 
			267,269.3 		"/>
		<line class="st6" x1="266.4" y1="269.3" x2="267.6" y2="273.4"/>
	</g>
	<g id="ACAD_PROXY_ENTITY-4">
		<text transform="matrix(1.047155e-03 1 -1 1.047155e-03 244.589 269.62)" class="st3 st4 st5">Door45</text>
		<polyline class="st7" points="244.9,269.5 245.4,269.5 245.4,271.5 245.4,273.6 244.9,273.6 244.3,273.6 244.3,271.5 244.3,268.3 
			244.9,269.5 		"/>
		<line class="st7" x1="244.3" y1="269.5" x2="245.4" y2="273.6"/>
	</g>
	<g id="ACAD_PROXY_ENTITY-4_1_">
		<text transform="matrix(0.1501 -0.9887 0.9887 0.1501 104.4594 76.5867)" class="st3 st4 st5">Door45</text>
		<polyline class="st6" points="104.1,76.7 103.6,76.6 103.9,74.6 104.3,72.5 104.8,72.6 105.3,72.7 105,74.8 104.5,77.9 
			104.1,76.7 		"/>
		<line class="st6" x1="104.7" y1="76.7" x2="104.3" y2="72.5"/>
	</g>
	<g id="ACAD_PROXY_ENTITY-4_2_">
		<text transform="matrix(0.1385 -0.9904 0.9904 0.1385 110.2206 220.011)" class="st3 st4 st5">Door45</text>
		<polyline class="st6" points="109.9,220.1 109.4,220 109.7,218 110,216 110.5,216 111.1,216.1 110.8,218.2 110.3,221.4 
			109.9,220.1 		"/>
		<line class="st6" x1="110.5" y1="220.2" x2="110" y2="216"/>
	</g>
	<g id="ACAD_PROXY_ENTITY-4_3_">
		<text transform="matrix(-9.053233e-02 0.9959 -0.9959 -9.053233e-02 82.4223 350.422)" class="st3 st4 st5">Door45</text>
		<polyline class="st6" points="82.7,350.3 83.2,350.4 83.1,352.4 82.9,354.5 82.4,354.4 81.8,354.4 82,352.3 82.3,349.1 
			82.7,350.3 		"/>
		<line class="st6" x1="82.1" y1="350.3" x2="82.9" y2="354.5"/>
	</g>
	<g id="ACAD_PROXY_ENTITY-4_4_">
		<text transform="matrix(-0.994 -0.1092 0.1092 -0.994 75.5976 335.2295)" class="st3 st4 st5">Door45</text>
		<polyline class="st6" points="75.7,335.6 75.6,336 73.6,335.8 71.6,335.6 71.6,335.1 71.7,334.5 73.8,334.7 76.9,335.1 
			75.7,335.6 		"/>
		<line class="st6" x1="75.7" y1="335" x2="71.6" y2="335.6"/>
	</g>
	<g id="ACAD_PROXY_ENTITY-4_5_">
		<text transform="matrix(-9.053233e-02 0.9959 -0.9959 -9.053233e-02 37.2797 552.2845)" class="st3 st4 st5">Door45</text>
		<polyline class="st6" points="37.6,552.2 38.1,552.2 37.9,554.2 37.7,556.3 37.2,556.3 36.6,556.2 36.8,554.1 37.1,550.9 
			37.6,552.2 		"/>
		<line class="st6" x1="37" y1="552.1" x2="37.7" y2="556.3"/>
	</g>
	<g id="ACAD_PROXY_ENTITY-4_6_">
		<text transform="matrix(-0.994 -0.1092 0.1092 -0.994 117.7275 590.9815)" class="st3 st4 st5">Door45</text>
		<polyline class="st6" points="117.8,591.3 117.8,591.8 115.8,591.6 113.7,591.3 113.7,590.9 113.8,590.3 115.9,590.5 119.1,590.8 
			117.8,591.3 		"/>
		<line class="st6" x1="117.9" y1="590.7" x2="113.7" y2="591.3"/>
	</g>
	<g id="ACAD_PROXY_ENTITY-4_7_">
		<text transform="matrix(0.9883 -0.1526 0.1526 0.9883 532.7448 367.839)" class="st3 st4 st5">Door45</text>
		<polyline class="st6" points="532.6,367.5 532.5,367.1 534.5,366.8 536.6,366.4 536.6,366.9 536.7,367.5 534.6,367.8 531.5,368.3 
			532.6,367.5 		"/>
		<line class="st6" x1="532.7" y1="368.1" x2="536.6" y2="366.4"/>
	</g>
	<g id="ACAD_PROXY_ENTITY-4_8_">
		<text transform="matrix(0.9883 -0.1526 0.1526 0.9883 520.405 256.0553)" class="st3 st4 st5">Door45</text>
		<polyline class="st6" points="520.2,255.8 520.2,255.3 522.1,255 524.2,254.6 524.3,255.1 524.4,255.7 522.3,256.1 519.1,256.5 
			520.2,255.8 		"/>
		<line class="st6" x1="520.3" y1="256.4" x2="524.2" y2="254.6"/>
	</g>
	<g id="ACAD_PROXY_ENTITY-4_9_">
		<text transform="matrix(0.1459 0.9893 -0.9893 0.1459 515.2575 281.5032)" class="st3 st4 st5">Door45</text>
		<polyline class="st7" points="515.5,281.3 516,281.3 516.3,283.2 516.6,285.3 516.1,285.4 515.5,285.5 515.2,283.4 514.8,280.2 
			515.5,281.3 		"/>
		<line class="st7" x1="515" y1="281.4" x2="516.6" y2="285.3"/>
	</g>
	<g id="ACAD_PROXY_ENTITY-4_10_">
		<text transform="matrix(0.9883 -0.1526 0.1526 0.9883 515.8988 112.5147)" class="st3 st4 st5">Door45</text>
		<polyline class="st6" points="515.7,112.2 515.7,111.7 517.6,111.4 519.7,111.1 519.8,111.6 519.9,112.2 517.8,112.5 514.6,113 
			515.7,112.2 		"/>
		<line class="st6" x1="515.8" y1="112.8" x2="519.7" y2="111.1"/>
	</g>
	<g id="ACAD_PROXY_ENTITY-4_11_">
		<text transform="matrix(1.047155e-03 1 -1 1.047155e-03 224.2765 269.62)" class="st3 st4 st5">Door45</text>
		<polyline class="st7" points="224.6,269.5 225.1,269.5 225.1,271.5 225.1,273.6 224.6,273.6 224,273.6 224,271.5 224,268.3 
			224.6,269.5 		"/>
		<line class="st7" x1="224" y1="269.5" x2="225.1" y2="273.6"/>
	</g>
	<g id="ACAD_PROXY_ENTITY-4_12_">
		<text transform="matrix(1.047155e-03 1 -1 1.047155e-03 201.8371 269.62)" class="st3 st4 st5">Door45</text>
		<polyline class="st7" points="202.1,269.5 202.6,269.5 202.6,271.5 202.6,273.6 202.1,273.6 201.5,273.6 201.5,271.5 201.5,268.3 
			202.1,269.5 		"/>
		<line class="st7" x1="201.5" y1="269.5" x2="202.6" y2="273.6"/>
	</g>
	<g id="ACAD_PROXY_ENTITY-4_13_">
		<text transform="matrix(1.047155e-03 1 -1 1.047155e-03 262.3273 108.22)" class="st3 st4 st5">Door45</text>
		<polyline class="st7" points="262.6,108.1 263.1,108.1 263.1,110.1 263.1,112.2 262.6,112.2 262,112.2 262,110.1 262,106.9 
			262.6,108.1 		"/>
		<line class="st7" x1="262" y1="108.1" x2="263.1" y2="112.2"/>
	</g>
	<g id="ACAD_PROXY_ENTITY-4_14_">
		<text transform="matrix(1.047155e-03 1 -1 1.047155e-03 303.589 108.47)" class="st3 st4 st5">Door45</text>
		<polyline class="st7" points="303.9,108.4 304.4,108.4 304.4,110.4 304.4,112.5 303.9,112.5 303.3,112.5 303.3,110.4 303.3,107.1 
			303.9,108.4 		"/>
		<line class="st7" x1="303.3" y1="108.4" x2="304.4" y2="112.5"/>
	</g>
	<g id="ACAD_PROXY_ENTITY-4_15_">
		<text transform="matrix(1.047155e-03 1 -1 1.047155e-03 333.2082 129.92)" class="st3 st4 st5">Door45</text>
		<polyline class="st7" points="333.5,129.8 334,129.8 334,131.8 334,133.9 333.5,133.9 332.9,133.9 332.9,131.8 332.9,128.6 
			333.5,129.8 		"/>
		<line class="st7" x1="332.9" y1="129.8" x2="334" y2="133.9"/>
	</g>
	<g id="ACAD_PROXY_ENTITY-4_16_">
		<text transform="matrix(1.047155e-03 1 -1 1.047155e-03 348.9894 111.1847)" class="st3 st4 st5">Door45</text>
		<polyline class="st7" points="349.3,111.1 349.8,111.1 349.8,113.1 349.8,115.2 349.3,115.2 348.7,115.2 348.7,113.1 348.7,109.9 
			349.3,111.1 		"/>
		<line class="st7" x1="348.7" y1="111.1" x2="349.8" y2="115.2"/>
	</g>
	<g id="ACAD_PROXY_ENTITY-4_17_">
		<text transform="matrix(1.047155e-03 1 -1 1.047155e-03 389.9171 269.62)" class="st3 st4 st5">Door45</text>
		<polyline class="st7" points="390.2,269.5 390.7,269.5 390.7,271.5 390.7,273.6 390.2,273.6 389.6,273.6 389.6,271.5 389.6,268.3 
			390.2,269.5 		"/>
		<line class="st7" x1="389.6" y1="269.5" x2="390.7" y2="273.6"/>
	</g>
	<g id="ACAD_PROXY_ENTITY-4_18_">
		<text transform="matrix(1.047155e-03 1 -1 1.047155e-03 363.4425 269.62)" class="st3 st4 st5">Door45</text>
		<polyline class="st7" points="363.8,269.5 364.3,269.5 364.3,271.5 364.3,273.6 363.8,273.6 363.2,273.6 363.2,271.5 363.2,268.3 
			363.8,269.5 		"/>
		<line class="st7" x1="363.2" y1="269.5" x2="364.3" y2="273.6"/>
	</g>
	<g id="ACAD_PROXY_ENTITY-4_19_">
		<text transform="matrix(1.047155e-03 1 -1 1.047155e-03 326.5148 269.62)" class="st3 st4 st5">Door45</text>
		<polyline class="st7" points="326.8,269.5 327.3,269.5 327.3,271.5 327.3,273.6 326.8,273.6 326.2,273.6 326.2,271.5 326.2,268.3 
			326.8,269.5 		"/>
		<line class="st7" x1="326.2" y1="269.5" x2="327.3" y2="273.6"/>
	</g>
	<g id="ACAD_PROXY_ENTITY-4_20_">
		<text transform="matrix(1.047155e-03 1 -1 1.047155e-03 165.5246 647.42)" class="st3 st4 st5">Door45</text>
		<polyline class="st7" points="165.8,647.3 166.3,647.3 166.3,649.3 166.3,651.4 165.8,651.4 165.2,651.4 165.2,649.3 165.2,646.1 
			165.8,647.3 		"/>
		<line class="st7" x1="165.2" y1="647.3" x2="166.3" y2="651.4"/>
	</g>
	<g id="ACAD_PROXY_ENTITY-4_21_">
		<text transform="matrix(1.047155e-03 1 -1 1.047155e-03 188.6222 647.42)" class="st3 st4 st5">Door45</text>
		<polyline class="st7" points="188.9,647.3 189.4,647.3 189.4,649.3 189.4,651.4 188.9,651.4 188.3,651.4 188.3,649.3 188.3,646.1 
			188.9,647.3 		"/>
		<line class="st7" x1="188.3" y1="647.3" x2="189.4" y2="651.4"/>
	</g>
	<g id="ACAD_PROXY_ENTITY-4_31_">
		<text transform="matrix(1.047155e-03 -1 -1 -1.047155e-03 189.7218 629.3799)" class="st3 st4 st5">Door45</text>
		<polyline class="st7" points="190,629.5 189.4,630.7 189.4,627.5 189.4,625.4 190,625.4 190.5,625.4 190.5,627.5 190.5,629.5 
			190,629.5 		"/>
		<line class="st7" x1="190.5" y1="625.4" x2="189.4" y2="629.5"/>
	</g>
	<g id="ACAD_PROXY_ENTITY-4_22_">
		<text transform="matrix(1.047155e-03 1 -1 1.047155e-03 210.3898 647.42)" class="st3 st4 st5">Door45</text>
		<polyline class="st7" points="210.7,647.3 211.2,647.3 211.2,649.3 211.2,651.4 210.7,651.4 210.1,651.4 210.1,649.3 210.1,646.1 
			210.7,647.3 		"/>
		<line class="st7" x1="210.1" y1="647.3" x2="211.2" y2="651.4"/>
	</g>
	<g id="ACAD_PROXY_ENTITY-4_23_">
		<text transform="matrix(1.047155e-03 1 -1 1.047155e-03 233.8703 647.62)" class="st3 st4 st5">Door45</text>
		<polyline class="st7" points="234.2,647.5 234.7,647.5 234.7,649.5 234.7,651.6 234.2,651.6 233.6,651.6 233.6,649.5 233.6,646.3 
			234.2,647.5 		"/>
		<line class="st7" x1="233.6" y1="647.5" x2="234.7" y2="651.6"/>
	</g>
	<g id="ACAD_PROXY_ENTITY-4_24_">
		<text transform="matrix(1.047155e-03 1 -1 1.047155e-03 259.8097 647.62)" class="st3 st4 st5">Door45</text>
		<polyline class="st7" points="260.1,647.5 260.6,647.5 260.6,649.5 260.6,651.6 260.1,651.6 259.5,651.6 259.5,649.5 259.5,646.3 
			260.1,647.5 		"/>
		<line class="st7" x1="259.5" y1="647.5" x2="260.6" y2="651.6"/>
	</g>
	<g id="ACAD_PROXY_ENTITY-4_25_">
		<text transform="matrix(1.047155e-03 1 -1 1.047155e-03 283.6496 647.62)" class="st3 st4 st5">Door45</text>
		<polyline class="st7" points="284,647.5 284.5,647.5 284.5,649.5 284.5,651.6 284,651.6 283.4,651.6 283.4,649.5 283.4,646.3 
			284,647.5 		"/>
		<line class="st7" x1="283.4" y1="647.5" x2="284.5" y2="651.6"/>
	</g>
	<g id="ACAD_PROXY_ENTITY-4_26_">
		<text transform="matrix(1.047155e-03 1 -1 1.047155e-03 307.3195 647.62)" class="st3 st4 st5">Door45</text>
		<polyline class="st7" points="307.6,647.5 308.1,647.5 308.1,649.5 308.1,651.6 307.6,651.6 307,651.6 307,649.5 307,646.3 
			307.6,647.5 		"/>
		<line class="st7" x1="307" y1="647.5" x2="308.1" y2="651.6"/>
	</g>
	<g id="ACAD_PROXY_ENTITY-4_27_">
		<text transform="matrix(1.047155e-03 1 -1 1.047155e-03 330.5363 647.62)" class="st3 st4 st5">Door45</text>
		<polyline class="st7" points="330.8,647.5 331.3,647.5 331.3,649.5 331.3,651.6 330.8,651.6 330.2,651.6 330.2,649.5 330.2,646.3 
			330.8,647.5 		"/>
		<line class="st7" x1="330.2" y1="647.5" x2="331.3" y2="651.6"/>
	</g>
	<g id="ACAD_PROXY_ENTITY-4_28_">
		<text transform="matrix(1.047155e-03 1 -1 1.047155e-03 354.5382 647.62)" class="st3 st4 st5">Door45</text>
		<polyline class="st7" points="354.9,647.5 355.4,647.5 355.4,649.5 355.4,651.6 354.9,651.6 354.3,651.6 354.3,649.5 354.3,646.3 
			354.9,647.5 		"/>
		<line class="st7" x1="354.3" y1="647.5" x2="355.4" y2="651.6"/>
	</g>
	<g id="ACAD_PROXY_ENTITY-4_29_">
		<text transform="matrix(1.047155e-03 1 -1 1.047155e-03 445.7882 633.32)" class="st3 st4 st5">Door45</text>
		<polyline class="st7" points="446.1,633.2 446.6,633.2 446.6,635.2 446.6,637.3 446.1,637.3 445.5,637.3 445.5,635.2 445.5,632 
			446.1,633.2 		"/>
		<line class="st7" x1="445.5" y1="633.2" x2="446.6" y2="637.3"/>
	</g>
	<g id="ACAD_PROXY_ENTITY-4_30_">
		<text transform="matrix(1.047155e-03 1 -1 1.047155e-03 415.5812 633.32)" class="st3 st4 st5">Door45</text>
		<polyline class="st7" points="415.9,633.2 416.4,633.2 416.4,635.2 416.4,637.3 415.9,637.3 415.3,637.3 415.3,635.2 415.3,632 
			415.9,633.2 		"/>
		<line class="st7" x1="415.3" y1="633.2" x2="416.4" y2="637.3"/>
	</g>
	<g id="ACAD_PROXY_ENTITY-4_32_">
		<text transform="matrix(1.047155e-03 -1 -1 -1.047155e-03 239.3683 614.2803)" class="st3 st4 st5">Door45</text>
		<polyline class="st7" points="239.7,614.4 239.1,615.6 239.1,612.4 239.1,610.3 239.7,610.3 240.2,610.3 240.2,612.4 240.2,614.4 
			239.7,614.4 		"/>
		<line class="st7" x1="240.2" y1="610.3" x2="239.1" y2="614.4"/>
	</g>
	<g id="ACAD_PROXY_ENTITY-4_33_">
		<text transform="matrix(1.047155e-03 -1 -1 -1.047155e-03 260.0968 614.2803)" class="st3 st4 st5">Door45</text>
		<polyline class="st7" points="260.4,614.4 259.8,615.6 259.8,612.4 259.8,610.3 260.4,610.3 260.9,610.3 260.9,612.4 260.9,614.4 
			260.4,614.4 		"/>
		<line class="st7" x1="260.9" y1="610.3" x2="259.8" y2="614.4"/>
	</g>
	<g id="ACAD_PROXY_ENTITY-4_34_">
		<text transform="matrix(1.047155e-03 -1 -1 -1.047155e-03 283.0968 629.3799)" class="st3 st4 st5">Door45</text>
		<polyline class="st7" points="283.4,629.5 282.8,630.7 282.8,627.5 282.8,625.4 283.4,625.4 283.9,625.4 283.9,627.5 283.9,629.5 
			283.4,629.5 		"/>
		<line class="st7" x1="283.9" y1="625.4" x2="282.8" y2="629.5"/>
	</g>
	<g id="ACAD_PROXY_ENTITY-4_35_">
		<text transform="matrix(1.047155e-03 -1 -1 -1.047155e-03 329.7238 614.8301)" class="st3 st4 st5">Door45</text>
		<polyline class="st7" points="330,615 329.4,616.2 329.4,613 329.4,610.8 330,610.8 330.5,610.8 330.5,613 330.5,615 330,615 		
			"/>
		<line class="st7" x1="330.5" y1="610.8" x2="329.4" y2="615"/>
	</g>
	<g id="ACAD_PROXY_ENTITY-4_36_">
		<text transform="matrix(1.047155e-03 -1 -1 -1.047155e-03 350.6144 615.0303)" class="st3 st4 st5">Door45</text>
		<polyline class="st7" points="350.9,615.2 350.3,616.4 350.3,613.2 350.3,611 350.9,611 351.4,611 351.4,613.2 351.4,615.2 
			350.9,615.2 		"/>
		<line class="st7" x1="351.4" y1="611" x2="350.3" y2="615.2"/>
	</g>
	<g id="ACAD_PROXY_ENTITY-4_37_">
		<text transform="matrix(1.047155e-03 -1 -1 -1.047155e-03 380.8214 615.0303)" class="st3 st4 st5">Door45</text>
		<polyline class="st7" points="381.1,615.2 380.5,616.4 380.5,613.2 380.5,611 381.1,611 381.6,611 381.6,613.2 381.6,615.2 
			381.1,615.2 		"/>
		<line class="st7" x1="381.6" y1="611" x2="380.5" y2="615.2"/>
	</g>
	<g id="ACAD_PROXY_ENTITY-4_38_">
		<text transform="matrix(1.047155e-03 -1 -1 -1.047155e-03 401.5343 615.0303)" class="st3 st4 st5">Door45</text>
		<polyline class="st7" points="401.8,615.2 401.2,616.4 401.2,613.2 401.2,611 401.8,611 402.3,611 402.3,613.2 402.3,615.2 
			401.8,615.2 		"/>
		<line class="st7" x1="402.3" y1="611" x2="401.2" y2="615.2"/>
	</g>
	<g id="ACAD_PROXY_ENTITY-4_39_">
		<text transform="matrix(1.047155e-03 -1 -1 -1.047155e-03 426.8429 615.0303)" class="st3 st4 st5">Door45</text>
		<polyline class="st7" points="427.2,615.2 426.6,616.4 426.6,613.2 426.6,611 427.2,611 427.7,611 427.7,613.2 427.7,615.2 
			427.2,615.2 		"/>
		<line class="st7" x1="427.7" y1="611" x2="426.6" y2="615.2"/>
	</g>
	<g id="ACAD_PROXY_ENTITY-4_40_">
		<text transform="matrix(1.047155e-03 -1 -1 -1.047155e-03 358.257 253.1797)" class="st3 st4 st5">Door45</text>
		<polyline class="st7" points="358.6,253.3 358,254.5 358,251.3 358,249.2 358.6,249.2 359.1,249.2 359.1,251.3 359.1,253.3 
			358.6,253.3 		"/>
		<line class="st7" x1="359.1" y1="249.2" x2="358" y2="253.3"/>
	</g>
	<g id="ACAD_PROXY_ENTITY-4_41_">
		<text transform="matrix(1.047155e-03 -1 -1 -1.047155e-03 309.2882 239.0801)" class="st3 st4 st5">Door45</text>
		<polyline class="st7" points="309.6,239.2 309,240.4 309,237.2 309,235.1 309.6,235.1 310.1,235.1 310.1,237.2 310.1,239.2 
			309.6,239.2 		"/>
		<line class="st7" x1="310.1" y1="235.1" x2="309" y2="239.2"/>
	</g>
	<g id="ACAD_PROXY_ENTITY-4_42_">
		<text transform="matrix(1.047155e-03 -1 -1 -1.047155e-03 296.0714 239.0792)" class="st3 st4 st5">Door45</text>
		<polyline class="st7" points="296.4,239.2 295.8,240.4 295.8,237.2 295.8,235.1 296.4,235.1 296.9,235.1 296.9,237.2 296.9,239.2 
			296.4,239.2 		"/>
		<line class="st7" x1="296.9" y1="235.1" x2="295.8" y2="239.2"/>
	</g>
	<g id="ACAD_PROXY_ENTITY-4_43_">
		<text transform="matrix(1.047155e-03 -1 -1 -1.047155e-03 247.4855 253.0303)" class="st3 st4 st5">Door45</text>
		<polyline class="st7" points="247.8,253.2 247.2,254.4 247.2,251.2 247.2,249.1 247.8,249.1 248.3,249.1 248.3,251.2 248.3,253.2 
			247.8,253.2 		"/>
		<line class="st7" x1="248.3" y1="249.1" x2="247.2" y2="253.2"/>
	</g>
	<g id="ACAD_PROXY_ENTITY-4_44_">
		<text transform="matrix(1.047155e-03 -1 -1 -1.047155e-03 203.5128 253.0303)" class="st3 st4 st5">Door45</text>
		<polyline class="st7" points="203.8,253.2 203.2,254.4 203.2,251.2 203.2,249.1 203.8,249.1 204.3,249.1 204.3,251.2 204.3,253.2 
			203.8,253.2 		"/>
		<line class="st7" x1="204.3" y1="249.1" x2="203.2" y2="253.2"/>
	</g>
	<g id="ACAD_PROXY_ENTITY-4_45_">
		<text transform="matrix(1.047155e-03 -1 -1 -1.047155e-03 279.839 97.88)" class="st3 st4 st5">Door45</text>
		<polyline class="st7" points="280.1,98 279.6,99.2 279.6,96 279.6,93.9 280.1,93.9 280.6,93.9 280.6,96 280.6,98 280.1,98 		"/>
		<line class="st7" x1="280.6" y1="93.9" x2="279.6" y2="98"/>
	</g>
	<g id="ACAD_PROXY_ENTITY-4_46_">
		<text transform="matrix(1.047155e-03 -1 -1 -1.047155e-03 326.6378 98.0801)" class="st3 st4 st5">Door45</text>
		<polyline class="st7" points="326.9,98.2 326.3,99.4 326.3,96.2 326.3,94.1 326.9,94.1 327.4,94.1 327.4,96.2 327.4,98.2 
			326.9,98.2 		"/>
		<line class="st7" x1="327.4" y1="94.1" x2="326.3" y2="98.2"/>
	</g>
	<g id="ACAD_PROXY_ENTITY-4_47_">
		<text transform="matrix(1.047155e-03 -1 -1 -1.047155e-03 349.5382 98.0801)" class="st3 st4 st5">Door45</text>
		<polyline class="st7" points="349.8,98.2 349.2,99.4 349.2,96.2 349.2,94.1 349.8,94.1 350.3,94.1 350.3,96.2 350.3,98.2 
			349.8,98.2 		"/>
		<line class="st7" x1="350.3" y1="94.1" x2="349.2" y2="98.2"/>
	</g>
	<g id="ACAD_PROXY_ENTITY-4_48_">
		<text transform="matrix(0.1459 0.9893 -0.9893 0.1459 452.4577 105.3521)" class="st3 st4 st5">Door45</text>
		<polyline class="st7" points="452.7,105.1 453.2,105.1 453.5,107 453.8,109.1 453.3,109.2 452.7,109.3 452.4,107.2 452,104 
			452.7,105.1 		"/>
		<line class="st7" x1="452.2" y1="105.2" x2="453.8" y2="109.1"/>
	</g>
	<g id="ACAD_PROXY_ENTITY-4_49_">
		<text transform="matrix(-9.624846e-02 -0.9954 -0.9954 9.624846e-02 421.7995 92.4932)" class="st3 st4 st5">Door45</text>
		<polyline class="st7" points="422.1,92.6 421.7,93.9 421.3,90.7 421.1,88.6 421.7,88.5 422.2,88.5 422.4,90.6 422.6,92.5 
			422.1,92.6 		"/>
		<line class="st7" x1="422.2" y1="88.5" x2="421.6" y2="92.7"/>
	</g>
	<g id="ACAD_PROXY_ENTITY-4_50_">
		<text transform="matrix(-9.624846e-02 -0.9954 -0.9954 9.624846e-02 458.2274 88.7078)" class="st3 st4 st5">Door45</text>
		<polyline class="st7" points="458.5,88.8 458.1,90.1 457.7,86.9 457.5,84.8 458.1,84.7 458.6,84.7 458.8,86.8 459,88.7 
			458.5,88.8 		"/>
		<line class="st7" x1="458.6" y1="84.7" x2="458" y2="88.9"/>
	</g>
	<g id="ACAD_PROXY_ENTITY-4_51_">
		<text transform="matrix(-9.624846e-02 -0.9954 -0.9954 9.624846e-02 470.8049 87.3346)" class="st3 st4 st5">Door45</text>
		<polyline class="st7" points="471.1,87.5 470.7,88.7 470.3,85.5 470.1,83.4 470.7,83.3 471.2,83.3 471.4,85.4 471.6,87.4 
			471.1,87.5 		"/>
		<line class="st7" x1="471.2" y1="83.3" x2="470.6" y2="87.5"/>
	</g>
	<g id="ACAD_PROXY_ENTITY-4_52_">
		<text transform="matrix(-9.624846e-02 -0.9954 -0.9954 9.624846e-02 504.5807 83.7506)" class="st3 st4 st5">Door45</text>
		<polyline class="st7" points="504.9,83.9 504.4,85.1 504.1,81.9 503.9,79.8 504.5,79.8 505,79.7 505.2,81.9 505.3,83.8 
			504.9,83.9 		"/>
		<line class="st7" x1="505" y1="79.7" x2="504.4" y2="83.9"/>
	</g>
	<g id="ACAD_PROXY_ENTITY-4_53_">
		<text transform="matrix(0.9962 -8.689062e-02 -8.689062e-02 -0.9962 513.2832 91.0108)" class="st3 st4 st5">Door45</text>
		<polyline class="st7" points="513.1,91.3 511.9,90.9 515.1,90.5 517.2,90.3 517.3,90.9 517.3,91.4 515.2,91.6 513.3,91.8 
			513.1,91.3 		"/>
		<line class="st7" x1="517.3" y1="91.4" x2="513.1" y2="90.8"/>
	</g>
	<g id="ACAD_PROXY_ENTITY-4_54_">
		<text transform="matrix(0.9962 -8.689062e-02 -8.689062e-02 -0.9962 447.5946 149.7217)" class="st3 st4 st5">Door45</text>
		<polyline class="st7" points="447.5,150 446.2,149.6 449.4,149.2 451.5,149 451.6,149.6 451.6,150.1 449.5,150.3 447.6,150.5 
			447.5,150 		"/>
		<line class="st7" x1="451.6" y1="150.1" x2="447.4" y2="149.5"/>
	</g>
	<g id="ACAD_PROXY_ENTITY-4_55_">
		<text transform="matrix(0.9962 -8.689062e-02 -8.689062e-02 -0.9962 448.8082 161.128)" class="st3 st4 st5">Door45</text>
		<polyline class="st7" points="448.7,161.4 447.4,161 450.6,160.6 452.8,160.4 452.8,161 452.8,161.6 450.7,161.7 448.8,161.9 
			448.7,161.4 		"/>
		<line class="st7" x1="452.8" y1="161.6" x2="448.6" y2="160.9"/>
	</g>
	<g id="ACAD_PROXY_ENTITY-4_56_">
		<text transform="matrix(0.9962 -8.689062e-02 -8.689062e-02 -0.9962 518.2445 235.4307)" class="st3 st4 st5">Door45</text>
		<polyline class="st7" points="518.1,235.7 516.9,235.3 520.1,234.9 522.2,234.7 522.2,235.3 522.2,235.9 520.1,236.1 518.2,236.2 
			518.1,235.7 		"/>
		<line class="st7" x1="522.2" y1="235.9" x2="518.1" y2="235.2"/>
	</g>
	<g id="ACAD_PROXY_ENTITY-4_57_">
		<text transform="matrix(0.9962 -8.689062e-02 -8.689062e-02 -0.9962 535.2837 389.4424)" class="st3 st4 st5">Door45</text>
		<polyline class="st7" points="535.1,389.7 533.9,389.3 537.1,388.9 539.2,388.8 539.3,389.4 539.3,389.9 537.2,390.1 535.3,390.2 
			535.1,389.7 		"/>
		<line class="st7" x1="539.3" y1="389.9" x2="535.1" y2="389.2"/>
	</g>
	<g id="ACAD_PROXY_ENTITY-4_58_">
		<text transform="matrix(0.9962 -8.689062e-02 -8.689062e-02 -0.9962 537.0726 407.546)" class="st3 st4 st5">Door45</text>
		<polyline class="st7" points="536.9,407.8 535.7,407.4 538.9,407 541,406.9 541.1,407.5 541.1,408 539,408.2 537,408.3 
			536.9,407.8 		"/>
		<line class="st7" x1="541.1" y1="408" x2="536.9" y2="407.3"/>
	</g>
	<g id="ACAD_PROXY_ENTITY-4_59_">
		<text transform="matrix(0.9962 -8.689062e-02 -8.689062e-02 -0.9962 539.1158 425.5674)" class="st3 st4 st5">Door45</text>
		<polyline class="st7" points="539,425.8 537.7,425.4 540.9,425.1 543.1,424.9 543.1,425.5 543.1,426 541,426.2 539.1,426.3 
			539,425.8 		"/>
		<line class="st7" x1="543.1" y1="426" x2="539" y2="425.3"/>
	</g>
	<g id="ACAD_PROXY_ENTITY-4_60_">
		<text transform="matrix(0.9962 -8.689062e-02 -8.689062e-02 -0.9962 540.4884 439.0948)" class="st3 st4 st5">Door45</text>
		<polyline class="st7" points="540.3,439.4 539.1,438.9 542.3,438.6 544.4,438.4 544.5,439 544.5,439.5 542.4,439.7 540.5,439.9 
			540.3,439.4 		"/>
		<line class="st7" x1="544.5" y1="439.5" x2="540.3" y2="438.9"/>
	</g>
	<g id="ACAD_PROXY_ENTITY-4_61_">
		<text transform="matrix(0.9962 -8.689062e-02 -8.689062e-02 -0.9962 543.1775 462.044)" class="st3 st4 st5">Door45</text>
		<polyline class="st7" points="543,462.3 541.8,461.9 545,461.5 547.1,461.4 547.2,462 547.2,462.5 545.1,462.7 543.2,462.8 
			543,462.3 		"/>
		<line class="st7" x1="547.2" y1="462.5" x2="543" y2="461.8"/>
	</g>
	<g id="ACAD_PROXY_ENTITY-4_62_">
		<text transform="matrix(0.9962 -8.689062e-02 -8.689062e-02 -0.9962 529.9894 485.5596)" class="st3 st4 st5">Door45</text>
		<polyline class="st7" points="529.8,485.8 528.6,485.4 531.8,485.1 533.9,484.9 534,485.5 534,486 531.9,486.2 530,486.3 
			529.8,485.8 		"/>
		<line class="st7" x1="534" y1="486" x2="529.8" y2="485.3"/>
	</g>
	<g id="ACAD_PROXY_ENTITY-4_63_">
		<text transform="matrix(0.9962 -8.689062e-02 -8.689062e-02 -0.9962 532.9723 510.2296)" class="st3 st4 st5">Door45</text>
		<polyline class="st7" points="532.8,510.5 531.6,510.1 534.8,509.7 536.9,509.5 537,510.1 537,510.7 534.9,510.9 532.9,511 
			532.8,510.5 		"/>
		<line class="st7" x1="537" y1="510.7" x2="532.8" y2="510"/>
	</g>
	<g id="ACAD_PROXY_ENTITY-4_64_">
		<text transform="matrix(-0.1138 -0.9935 -0.9935 0.1138 544.7132 523.4538)" class="st3 st4 st5">Door45</text>
		<polyline class="st7" points="545,523.6 544.6,524.8 544.2,521.6 543.9,519.5 544.5,519.5 545,519.4 545.3,521.5 545.5,523.5 
			545,523.6 		"/>
		<line class="st7" x1="545" y1="519.4" x2="544.5" y2="523.6"/>
	</g>
	<g id="ACAD_PROXY_ENTITY-4_65_">
		<text transform="matrix(-0.9934 0.1149 0.1149 0.9934 429.4622 123.0001)" class="st3 st4 st5">Door45</text>
		<polyline class="st7" points="429.6,122.7 430.8,123.1 427.6,123.5 425.5,123.8 425.5,123.2 425.4,122.7 427.6,122.4 429.5,122.2 
			429.6,122.7 		"/>
		<line class="st7" x1="425.4" y1="122.7" x2="429.6" y2="123.2"/>
	</g>
	<g id="ACAD_PROXY_ENTITY-4_66_">
		<text transform="matrix(-0.9934 0.1149 0.1149 0.9934 430.7825 135.002)" class="st3 st4 st5">Door45</text>
		<polyline class="st7" points="430.9,134.7 432.2,135.1 429,135.5 426.9,135.8 426.8,135.2 426.8,134.7 428.9,134.4 430.8,134.2 
			430.9,134.7 		"/>
		<line class="st7" x1="426.8" y1="134.7" x2="430.9" y2="135.2"/>
	</g>
	<g id="ACAD_PROXY_ENTITY-4_67_">
		<text transform="matrix(-0.9934 0.1149 0.1149 0.9934 433.4778 160.6662)" class="st3 st4 st5">Door45</text>
		<polyline class="st7" points="433.6,160.4 434.9,160.8 431.7,161.2 429.6,161.5 429.5,160.9 429.5,160.4 431.6,160.1 433.5,159.9 
			433.6,160.4 		"/>
		<line class="st7" x1="429.5" y1="160.4" x2="433.6" y2="160.9"/>
	</g>
	<g id="ACAD_PROXY_ENTITY-4_68_">
		<text transform="matrix(-0.9934 0.1149 0.1149 0.9934 434.555 172.7838)" class="st3 st4 st5">Door45</text>
		<polyline class="st7" points="434.7,172.5 435.9,172.9 432.7,173.3 430.6,173.6 430.6,173 430.5,172.5 432.6,172.2 434.6,172 
			434.7,172.5 		"/>
		<line class="st7" x1="430.5" y1="172.5" x2="434.7" y2="173"/>
	</g>
	<g id="ACAD_PROXY_ENTITY-4_69_">
		<text transform="matrix(-0.9934 0.1149 0.1149 0.9934 440.3567 226.2153)" class="st3 st4 st5">Door45</text>
		<polyline class="st7" points="440.5,225.9 441.7,226.3 438.5,226.8 436.4,227 436.4,226.4 436.3,225.9 438.4,225.6 440.4,225.4 
			440.5,225.9 		"/>
		<line class="st7" x1="436.3" y1="225.9" x2="440.5" y2="226.4"/>
	</g>
	<g id="ACAD_PROXY_ENTITY-4_70_">
		<text transform="matrix(-0.9934 0.1149 0.1149 0.9934 442.4475 244.7848)" class="st3 st4 st5">Door45</text>
		<polyline class="st7" points="442.6,244.5 443.8,244.9 440.6,245.3 438.5,245.6 438.5,245 438.4,244.5 440.5,244.2 442.5,244 
			442.6,244.5 		"/>
		<line class="st7" x1="438.4" y1="244.5" x2="442.6" y2="245"/>
	</g>
	<g id="ACAD_PROXY_ENTITY-4_71_">
		<text transform="matrix(-0.9934 0.1149 0.1149 0.9934 502.8294 237.0421)" class="st3 st4 st5">Door45</text>
		<polyline class="st7" points="503,236.8 504.2,237.1 501,237.6 498.9,237.8 498.8,237.2 498.8,236.7 500.9,236.5 502.8,236.3 
			503,236.8 		"/>
		<line class="st7" x1="498.8" y1="236.7" x2="503" y2="237.3"/>
	</g>
	<g id="ACAD_PROXY_ENTITY-4_72_">
		<text transform="matrix(-0.9934 0.1149 0.1149 0.9934 448.9143 314.2229)" class="st3 st4 st5">Door45</text>
		<polyline class="st7" points="449,313.9 450.3,314.3 447.1,314.8 445,315 444.9,314.4 444.9,313.9 447,313.7 448.9,313.5 
			449,313.9 		"/>
		<line class="st7" x1="444.9" y1="313.9" x2="449.1" y2="314.4"/>
	</g>
	<g id="ACAD_PROXY_ENTITY-4_73_">
		<text transform="matrix(-0.9934 0.1149 0.1149 0.9934 450.594 328.0996)" class="st3 st4 st5">Door45</text>
		<polyline class="st7" points="450.7,327.8 452,328.2 448.8,328.6 446.7,328.9 446.6,328.3 446.6,327.8 448.7,327.5 450.6,327.3 
			450.7,327.8 		"/>
		<line class="st7" x1="446.6" y1="327.8" x2="450.8" y2="328.3"/>
	</g>
	<g id="ACAD_PROXY_ENTITY-4_74_">
		<text transform="matrix(-0.9934 0.1149 0.1149 0.9934 452.6634 346.455)" class="st3 st4 st5">Door45</text>
		<polyline class="st7" points="452.8,346.2 454,346.6 450.8,347 448.7,347.3 448.7,346.7 448.6,346.1 450.8,345.9 452.7,345.7 
			452.8,346.2 		"/>
		<line class="st7" x1="448.6" y1="346.1" x2="452.8" y2="346.7"/>
	</g>
	<g id="ACAD_PROXY_ENTITY-4_75_">
		<text transform="matrix(-0.9934 0.1149 0.1149 0.9934 456.679 383.8469)" class="st3 st4 st5">Door45</text>
		<polyline class="st7" points="456.8,383.6 458.1,384 454.9,384.4 452.8,384.6 452.7,384 452.7,383.5 454.8,383.3 456.7,383.1 
			456.8,383.6 		"/>
		<line class="st7" x1="452.7" y1="383.5" x2="456.8" y2="384.1"/>
	</g>
	<g id="ACAD_PROXY_ENTITY-4_76_">
		<text transform="matrix(-0.9934 0.1149 0.1149 0.9934 459.1155 407.5299)" class="st3 st4 st5">Door45</text>
		<polyline class="st7" points="459.2,407.2 460.5,407.6 457.3,408.1 455.2,408.3 455.1,407.7 455.1,407.2 457.2,407 459.1,406.8 
			459.2,407.2 		"/>
		<line class="st7" x1="455.1" y1="407.2" x2="459.3" y2="407.8"/>
	</g>
	<g id="ACAD_PROXY_ENTITY-4_77_">
		<text transform="matrix(-0.9934 0.1149 0.1149 0.9934 461.7591 430.9758)" class="st3 st4 st5">Door45</text>
		<polyline class="st7" points="461.9,430.7 463.1,431.1 459.9,431.5 457.8,431.8 457.8,431.2 457.7,430.7 459.8,430.4 461.8,430.2 
			461.9,430.7 		"/>
		<line class="st7" x1="457.7" y1="430.7" x2="461.9" y2="431.2"/>
	</g>
	<g id="ACAD_PROXY_ENTITY-4_78_">
		<text transform="matrix(-0.9934 0.1149 0.1149 0.9934 466.9055 480.0001)" class="st3 st4 st5">Door45</text>
		<polyline class="st7" points="467,479.7 468.3,480.1 465.1,480.5 463,480.8 462.9,480.2 462.9,479.7 465,479.4 466.9,479.2 
			467,479.7 		"/>
		<line class="st7" x1="462.9" y1="479.7" x2="467.1" y2="480.2"/>
	</g>
	<g id="ACAD_PROXY_ENTITY-4_79_">
		<text transform="matrix(-0.9934 0.1149 0.1149 0.9934 485.345 516.6472)" class="st3 st4 st5">Door45</text>
		<polyline class="st7" points="485.5,516.4 486.7,516.8 483.5,517.2 481.4,517.4 481.4,516.8 481.3,516.3 483.4,516.1 485.3,515.9 
			485.5,516.4 		"/>
		<line class="st7" x1="481.3" y1="516.3" x2="485.5" y2="516.9"/>
	</g>
	<g id="ACAD_PROXY_ENTITY-4_80_">
		<text transform="matrix(-0.9934 0.1149 0.1149 0.9934 491.0159 568.3279)" class="st3 st4 st5">Door45</text>
		<polyline class="st7" points="491.1,568 492.4,568.4 489.2,568.9 487.1,569.1 487,568.5 487,568 489.1,567.8 491,567.6 491.1,568 
					"/>
		<line class="st7" x1="487" y1="568" x2="491.2" y2="568.6"/>
	</g>
	<g id="ACAD_PROXY_ENTITY-4_81_">
		<text transform="matrix(0.9936 -0.1129 -0.1129 -0.9936 469.75 336.3475)" class="st3 st4 st5">Door45</text>
		<polyline class="st7" points="469.6,336.6 468.4,336.2 471.6,335.8 473.7,335.6 473.7,336.2 473.8,336.7 471.7,336.9 469.7,337.1 
			469.6,336.6 		"/>
		<line class="st7" x1="473.8" y1="336.7" x2="469.6" y2="336.1"/>
	</g>
	<g id="ACAD_PROXY_ENTITY-4_82_">
		<text transform="matrix(0.9936 -0.1129 -0.1129 -0.9936 475.0205 386.0116)" class="st3 st4 st5">Door45</text>
		<polyline class="st7" points="474.9,386.3 473.6,385.9 476.8,385.5 478.9,385.2 479,385.8 479,386.3 476.9,386.6 475,386.8 
			474.9,386.3 		"/>
		<line class="st7" x1="479" y1="386.3" x2="474.9" y2="385.8"/>
	</g>
	<g id="ACAD_PROXY_ENTITY-4_83_">
		<text transform="matrix(0.9936 -0.1129 -0.1129 -0.9936 481.3297 445.7616)" class="st3 st4 st5">Door45</text>
		<polyline class="st7" points="481.2,446 480,445.7 483.1,445.2 485.3,445 485.3,445.6 485.3,446.1 483.2,446.3 481.3,446.5 
			481.2,446 		"/>
		<line class="st7" x1="485.3" y1="446.1" x2="481.2" y2="445.5"/>
	</g>
	<g id="ACAD_PROXY_ENTITY-4_84_">
		<text transform="matrix(-1 -1.047155e-03 -1.047155e-03 1 285.2647 247.2244)" class="st3 st4 st5">Door45</text>
		<polyline class="st7" points="285.4,246.9 286.6,247.5 283.4,247.5 281.3,247.5 281.3,246.9 281.3,246.4 283.4,246.4 285.4,246.4 
			285.4,246.9 		"/>
		<line class="st7" x1="281.3" y1="246.4" x2="285.4" y2="247.5"/>
	</g>
	<g id="ACAD_PROXY_ENTITY-4_85_">
		<text transform="matrix(1 -1.047155e-03 1.047155e-03 1 320.3901 247.2244)" class="st3 st4 st5">Door45</text>
		<polyline class="st7" points="320.3,246.9 320.3,246.4 322.3,246.4 324.4,246.4 324.4,246.9 324.4,247.5 322.3,247.5 319.1,247.5 
			320.3,246.9 		"/>
		<line class="st7" x1="320.3" y1="247.5" x2="324.4" y2="246.4"/>
	</g>
	<g id="ACAD_PROXY_ENTITY-4_86_">
		<text transform="matrix(1 -1.047155e-03 1.047155e-03 1 362.42 638.8252)" class="st3 st4 st5">Door45</text>
		<polyline class="st7" points="362.3,638.5 362.3,638 364.3,638 366.4,638 366.4,638.5 366.4,639.1 364.3,639.1 361.1,639.1 
			362.3,638.5 		"/>
		<line class="st7" x1="362.3" y1="639.1" x2="366.4" y2="638"/>
	</g>
	<g id="ACAD_PROXY_ENTITY-4_87_">
		<text transform="matrix(-1 -1.047155e-03 -1.047155e-03 1 321.1807 626.7608)" class="st3 st4 st5">Door45</text>
		<polyline class="st7" points="321.3,626.5 322.5,627 319.3,627 317.2,627 317.2,626.5 317.2,626 319.3,626 321.3,626 321.3,626.5 
					"/>
		<line class="st7" x1="317.2" y1="626" x2="321.3" y2="627"/>
	</g>
	<g id="ACAD_PROXY_ENTITY-4_88_">
		<text transform="matrix(-1 -1.047155e-03 -1.047155e-03 1 224.2813 626.7608)" class="st3 st4 st5">Door45</text>
		<polyline class="st7" points="224.4,626.5 225.6,627 222.4,627 220.3,627 220.3,626.5 220.3,626 222.4,626 224.4,626 224.4,626.5 
					"/>
		<line class="st7" x1="220.3" y1="626" x2="224.4" y2="627"/>
	</g>
	<g id="ACAD_PROXY_ENTITY-4_89_">
		<text transform="matrix(0.1068 -0.9943 -0.9943 -0.1068 171.4694 90.699)" class="st3 st4 st5">Door45</text>
		<polyline class="st7" points="171.8,90.9 171,92 171.4,88.8 171.6,86.7 172.2,86.8 172.7,86.8 172.5,88.9 172.3,90.9 171.8,90.9 
					"/>
		<line class="st7" x1="172.7" y1="86.8" x2="171.2" y2="90.8"/>
	</g>
	<g id="ACAD_PROXY_ENTITY-4_90_">
		<text transform="matrix(0.1068 -0.9943 -0.9943 -0.1068 153.2263 89.2185)" class="st3 st4 st5">Door45</text>
		<polyline class="st7" points="153.5,89.4 152.8,90.5 153.1,87.3 153.4,85.2 154,85.3 154.5,85.3 154.2,87.4 154,89.4 153.5,89.4 
					"/>
		<line class="st7" x1="154.5" y1="85.3" x2="152.9" y2="89.3"/>
	</g>
	<g id="ACAD_PROXY_ENTITY-4_91_">
		<text transform="matrix(0.1068 -0.9943 -0.9943 -0.1068 134.527 87.4256)" class="st3 st4 st5">Door45</text>
		<polyline class="st7" points="134.8,87.6 134.1,88.7 134.4,85.5 134.7,83.4 135.3,83.5 135.8,83.6 135.5,85.6 135.3,87.6 
			134.8,87.6 		"/>
		<line class="st7" x1="135.8" y1="83.6" x2="134.2" y2="87.5"/>
	</g>
	<g id="ACAD_PROXY_ENTITY-4_92_">
		<text transform="matrix(0.1068 -0.9943 -0.9943 -0.1068 122.279 86.1404)" class="st3 st4 st5">Door45</text>
		<polyline class="st7" points="122.6,86.3 121.9,87.4 122.2,84.2 122.4,82.2 123,82.2 123.5,82.3 123.3,84.4 123.1,86.3 
			122.6,86.3 		"/>
		<line class="st7" x1="123.5" y1="82.3" x2="122" y2="86.2"/>
	</g>
	<g id="ACAD_PROXY_ENTITY-4_93_">
		<text transform="matrix(0.1068 -0.9943 -0.9943 -0.1068 175.7263 250.951)" class="st3 st4 st5">Door45</text>
		<polyline class="st7" points="176,251.1 175.3,252.2 175.6,249.1 175.9,247 176.5,247 177,247.1 176.7,249.2 176.5,251.2 
			176,251.1 		"/>
		<line class="st7" x1="177" y1="247.1" x2="175.4" y2="251"/>
	</g>
	<g id="ACAD_PROXY_ENTITY-4_94_">
		<text transform="matrix(0.1068 -0.9943 -0.9943 -0.1068 161.6891 249.8181)" class="st3 st4 st5">Door45</text>
		<polyline class="st7" points="162,250 161.3,251.1 161.6,247.9 161.8,245.8 162.4,245.9 162.9,245.9 162.7,248 162.5,250 162,250 
					"/>
		<line class="st7" x1="162.9" y1="245.9" x2="161.4" y2="249.9"/>
	</g>
	<g id="ACAD_PROXY_ENTITY-4_95_">
		<text transform="matrix(0.1068 -0.9943 -0.9943 -0.1068 124.8034 245.6814)" class="st3 st4 st5">Door45</text>
		<polyline class="st7" points="125.1,245.8 124.4,247 124.7,243.8 124.9,241.7 125.5,241.8 126,241.8 125.8,243.9 125.6,245.9 
			125.1,245.8 		"/>
		<line class="st7" x1="126" y1="241.8" x2="124.5" y2="245.8"/>
	</g>
	<g id="ACAD_PROXY_ENTITY-4_96_">
		<text transform="matrix(0.1068 -0.9943 -0.9943 -0.1068 126.2995 502.5486)" class="st3 st4 st5">Door45</text>
		<polyline class="st7" points="126.6,502.7 125.9,503.8 126.2,500.6 126.4,498.6 127,498.6 127.5,498.7 127.3,500.8 127.1,502.8 
			126.6,502.7 		"/>
		<line class="st7" x1="127.5" y1="498.7" x2="126" y2="502.6"/>
	</g>
	<g id="ACAD_PROXY_ENTITY-4_97_">
		<text transform="matrix(0.9905 0.1378 0.1378 -0.9905 154.8371 149.0601)" class="st3 st4 st5">Door45</text>
		<polyline class="st7" points="154.7,149.4 153.6,148.6 156.7,149 158.8,149.3 158.7,149.9 158.7,150.4 156.6,150.1 154.6,149.8 
			154.7,149.4 		"/>
		<line class="st7" x1="158.7" y1="150.4" x2="154.8" y2="148.8"/>
	</g>
	<g id="ACAD_PROXY_ENTITY-4_98_">
		<text transform="matrix(0.9905 0.1378 0.1378 -0.9905 153.3975 162.5973)" class="st3 st4 st5">Door45</text>
		<polyline class="st7" points="153.2,162.9 152.1,162.1 155.3,162.6 157.4,162.9 157.3,163.5 157.2,163.9 155.2,163.7 153.2,163.4 
			153.2,162.9 		"/>
		<line class="st7" x1="157.2" y1="163.9" x2="153.3" y2="162.3"/>
	</g>
	<g id="ACAD_PROXY_ENTITY-4_99_">
		<text transform="matrix(0.9905 0.1378 0.1378 -0.9905 149.6662 195.399)" class="st3 st4 st5">Door45</text>
		<polyline class="st7" points="149.5,195.7 148.4,194.9 151.6,195.4 153.7,195.7 153.6,196.3 153.5,196.7 151.4,196.5 149.4,196.2 
			149.5,195.7 		"/>
		<line class="st7" x1="153.5" y1="196.7" x2="149.6" y2="195.1"/>
	</g>
	<g id="ACAD_PROXY_ENTITY-4_100_">
		<text transform="matrix(0.9905 0.1378 0.1378 -0.9905 157.7049 305.1424)" class="st3 st4 st5">Door45</text>
		<polyline class="st7" points="157.5,305.4 156.4,304.7 159.6,305.1 161.7,305.4 161.6,306 161.5,306.5 159.5,306.2 157.5,305.9 
			157.5,305.4 		"/>
		<line class="st7" x1="161.5" y1="306.5" x2="157.6" y2="304.8"/>
	</g>
	<g id="ACAD_PROXY_ENTITY-4_101_">
		<text transform="matrix(0.9905 0.1378 0.1378 -0.9905 155.161 328.006)" class="st3 st4 st5">Door45</text>
		<polyline class="st7" points="155,328.3 153.9,327.5 157.1,328 159.1,328.3 159.1,328.9 159,329.4 156.9,329.1 154.9,328.8 
			155,328.3 		"/>
		<line class="st7" x1="159" y1="329.4" x2="155.1" y2="327.7"/>
	</g>
	<g id="ACAD_PROXY_ENTITY-4_102_">
		<text transform="matrix(0.9905 0.1378 0.1378 -0.9905 151.5861 363.5251)" class="st3 st4 st5">Door45</text>
		<polyline class="st7" points="151.4,363.8 150.3,363.1 153.5,363.5 155.6,363.8 155.5,364.4 155.4,364.9 153.3,364.6 151.4,364.3 
			151.4,363.8 		"/>
		<line class="st7" x1="155.4" y1="364.9" x2="151.5" y2="363.2"/>
	</g>
	<g id="ACAD_PROXY_ENTITY-4_103_">
		<text transform="matrix(0.9905 0.1378 0.1378 -0.9905 148.3068 392.3689)" class="st3 st4 st5">Door45</text>
		<polyline class="st7" points="148.1,392.7 147,391.9 150.2,392.3 152.3,392.6 152.2,393.2 152.1,393.7 150.1,393.4 148.1,393.2 
			148.1,392.7 		"/>
		<line class="st7" x1="152.1" y1="393.7" x2="148.2" y2="392.1"/>
	</g>
	<g id="ACAD_PROXY_ENTITY-4_104_">
		<text transform="matrix(0.9905 0.1378 0.1378 -0.9905 146.198 411.5809)" class="st3 st4 st5">Door45</text>
		<polyline class="st7" points="146,411.9 144.9,411.1 148.1,411.6 150.2,411.8 150.1,412.4 150,412.9 148,412.6 146,412.4 
			146,411.9 		"/>
		<line class="st7" x1="150" y1="412.9" x2="146.1" y2="411.3"/>
	</g>
	<g id="ACAD_PROXY_ENTITY-4_105_">
		<text transform="matrix(0.9905 0.1378 0.1378 -0.9905 144.3243 428.4081)" class="st3 st4 st5">Door45</text>
		<polyline class="st7" points="144.2,428.7 143.1,427.9 146.2,428.4 148.3,428.7 148.2,429.3 148.2,429.8 146.1,429.5 144.1,429.2 
			144.2,428.7 		"/>
		<line class="st7" x1="148.2" y1="429.8" x2="144.2" y2="428.1"/>
	</g>
	<g id="ACAD_PROXY_ENTITY-4_106_">
		<text transform="matrix(0.9905 0.1378 0.1378 -0.9905 142.0106 450.7368)" class="st3 st4 st5">Door45</text>
		<polyline class="st7" points="141.9,451 140.7,450.3 143.9,450.7 146,451 145.9,451.6 145.8,452.1 143.8,451.8 141.8,451.5 
			141.9,451 		"/>
		<line class="st7" x1="145.8" y1="452.1" x2="141.9" y2="450.4"/>
	</g>
	<g id="ACAD_PROXY_ENTITY-4_107_">
		<text transform="matrix(0.9905 0.1378 0.1378 -0.9905 139.9051 471.1581)" class="st3 st4 st5">Door45</text>
		<polyline class="st7" points="139.7,471.5 138.6,470.7 141.8,471.1 143.9,471.4 143.8,472 143.7,472.5 141.7,472.2 139.7,471.9 
			139.7,471.5 		"/>
		<line class="st7" x1="143.7" y1="472.5" x2="139.8" y2="470.9"/>
	</g>
	<g id="ACAD_PROXY_ENTITY-4_108_">
		<text transform="matrix(0.9905 0.1378 0.1378 -0.9905 131.9061 516.7624)" class="st3 st4 st5">Door45</text>
		<polyline class="st7" points="131.7,517.1 130.6,516.3 133.8,516.7 135.9,517 135.8,517.6 135.7,518.1 133.7,517.8 131.7,517.6 
			131.7,517.1 		"/>
		<line class="st7" x1="135.7" y1="518.1" x2="131.8" y2="516.5"/>
	</g>
	<g id="ACAD_PROXY_ENTITY-4_109_">
		<text transform="matrix(0.9905 0.1378 0.1378 -0.9905 129.5064 536.8746)" class="st3 st4 st5">Door45</text>
		<polyline class="st7" points="129.3,537.2 128.2,536.4 131.4,536.8 133.5,537.1 133.4,537.7 133.3,538.2 131.3,537.9 129.3,537.7 
			129.3,537.2 		"/>
		<line class="st7" x1="133.3" y1="538.2" x2="129.4" y2="536.6"/>
	</g>
	<g id="ACAD_PROXY_ENTITY-4_110_">
		<text transform="matrix(0.9905 0.1378 0.1378 -0.9905 108.6418 113.7652)" class="st3 st4 st5">Door45</text>
		<polyline class="st7" points="108.5,114.1 107.4,113.3 110.5,113.7 112.6,114 112.5,114.6 112.5,115.1 110.4,114.8 108.4,114.6 
			108.5,114.1 		"/>
		<line class="st7" x1="112.5" y1="115.1" x2="108.6" y2="113.5"/>
	</g>
	<g id="ACAD_PROXY_ENTITY-4_111_">
		<text transform="matrix(-0.9905 -0.1378 -0.1378 0.9905 90.1423 117.831)" class="st3 st4 st5">Door45</text>
		<polyline class="st7" points="90.3,117.5 91.4,118.3 88.2,117.8 86.2,117.6 86.2,117 86.3,116.5 88.4,116.8 90.4,117 90.3,117.5 
					"/>
		<line class="st7" x1="86.3" y1="116.5" x2="90.2" y2="118.1"/>
	</g>
	<g id="ACAD_PROXY_ENTITY-4_112_">
		<text transform="matrix(-0.9905 -0.1378 -0.1378 0.9905 138.6478 146.9745)" class="st3 st4 st5">Door45</text>
		<polyline class="st7" points="138.8,146.7 139.9,147.4 136.7,147 134.7,146.7 134.7,146.1 134.8,145.6 136.9,145.9 138.9,146.2 
			138.8,146.7 		"/>
		<line class="st7" x1="134.8" y1="145.6" x2="138.7" y2="147.3"/>
	</g>
	<g id="ACAD_PROXY_ENTITY-4_113_">
		<text transform="matrix(-0.9905 -0.1378 -0.1378 0.9905 137.449 159.3053)" class="st3 st4 st5">Door45</text>
		<polyline class="st7" points="137.6,159 138.7,159.8 135.5,159.3 133.5,159 133.5,158.5 133.6,158 135.7,158.2 137.7,158.5 
			137.6,159 		"/>
		<line class="st7" x1="133.6" y1="158" x2="137.5" y2="159.6"/>
	</g>
	<g id="ACAD_PROXY_ENTITY-4_114_">
		<text transform="matrix(-0.9905 -0.1378 -0.1378 0.9905 134.2747 193.9577)" class="st3 st4 st5">Door45</text>
		<polyline class="st7" points="134.4,193.7 135.5,194.4 132.4,194 130.3,193.7 130.4,193.1 130.4,192.6 132.5,192.9 134.5,193.2 
			134.4,193.7 		"/>
		<line class="st7" x1="130.4" y1="192.6" x2="134.3" y2="194.3"/>
	</g>
	<g id="ACAD_PROXY_ENTITY-4_115_">
		<text transform="matrix(-0.9905 -0.1378 -0.1378 0.9905 100.7004 239.3582)" class="st3 st4 st5">Door45</text>
		<polyline class="st7" points="100.9,239.1 102,239.8 98.8,239.4 96.7,239.1 96.8,238.5 96.9,238 98.9,238.3 100.9,238.6 
			100.9,239.1 		"/>
		<line class="st7" x1="96.9" y1="238" x2="100.8" y2="239.7"/>
	</g>
	<g id="ACAD_PROXY_ENTITY-4_116_">
		<text transform="matrix(-0.9905 -0.1378 -0.1378 0.9905 84.5687 249.8137)" class="st3 st4 st5">Door45</text>
		<polyline class="st7" points="84.7,249.5 85.8,250.3 82.7,249.8 80.6,249.6 80.7,249 80.7,248.5 82.8,248.8 84.8,249 84.7,249.5 
					"/>
		<line class="st7" x1="80.7" y1="248.5" x2="84.6" y2="250.1"/>
	</g>
	<g id="ACAD_PROXY_ENTITY-4_117_">
		<text transform="matrix(-0.9905 -0.1378 -0.1378 0.9905 82.3232 272.0489)" class="st3 st4 st5">Door45</text>
		<polyline class="st7" points="82.5,271.8 83.6,272.5 80.4,272.1 78.3,271.8 78.4,271.2 78.5,270.7 80.6,271 82.6,271.3 
			82.5,271.8 		"/>
		<line class="st7" x1="78.5" y1="270.7" x2="82.4" y2="272.4"/>
	</g>
	<g id="ACAD_PROXY_ENTITY-4_118_">
		<text transform="matrix(-0.9905 -0.1378 -0.1378 0.9905 80.2204 291.8415)" class="st3 st4 st5">Door45</text>
		<polyline class="st7" points="80.4,291.5 81.5,292.3 78.3,291.9 76.2,291.6 76.3,291 76.4,290.5 78.5,290.8 80.5,291.1 
			80.4,291.5 		"/>
		<line class="st7" x1="76.4" y1="290.5" x2="80.3" y2="292.1"/>
	</g>
	<g id="ACAD_PROXY_ENTITY-4_119_">
		<text transform="matrix(-0.9905 -0.1378 -0.1378 0.9905 77.5954 314.6643)" class="st3 st4 st5">Door45</text>
		<polyline class="st7" points="77.8,314.4 78.9,315.1 75.7,314.7 73.6,314.4 73.7,313.8 73.8,313.3 75.8,313.6 77.8,313.9 
			77.8,314.4 		"/>
		<line class="st7" x1="73.8" y1="313.3" x2="77.7" y2="315"/>
	</g>
	<g id="ACAD_PROXY_ENTITY-4_120_">
		<text transform="matrix(-0.9905 -0.1378 -0.1378 0.9905 143.2901 279.8405)" class="st3 st4 st5">Door45</text>
		<polyline class="st7" points="143.4,279.5 144.5,280.3 141.4,279.9 139.3,279.6 139.4,279 139.5,278.5 141.5,278.8 143.5,279.1 
			143.4,279.5 		"/>
		<line class="st7" x1="139.5" y1="278.5" x2="143.4" y2="280.1"/>
	</g>
	<g id="ACAD_PROXY_ENTITY-4_121_">
		<text transform="matrix(-0.9905 -0.1378 -0.1378 0.9905 125.6093 444.874)" class="st3 st4 st5">Door45</text>
		<polyline class="st7" points="125.8,444.6 126.9,445.3 123.7,444.9 121.6,444.6 121.7,444 121.8,443.5 123.9,443.8 125.8,444.1 
			125.8,444.6 		"/>
		<line class="st7" x1="121.8" y1="443.5" x2="125.7" y2="445.2"/>
	</g>
	<g id="ACAD_PROXY_ENTITY-4_122_">
		<text transform="matrix(-0.9905 -0.1378 -0.1378 0.9905 124.3418 456.2527)" class="st3 st4 st5">Door45</text>
		<polyline class="st7" points="124.5,456 125.6,456.7 122.4,456.3 120.4,456 120.4,455.4 120.5,454.9 122.6,455.2 124.6,455.5 
			124.5,456 		"/>
		<line class="st7" x1="120.5" y1="454.9" x2="124.4" y2="456.6"/>
	</g>
	<g id="ACAD_PROXY_ENTITY-4_123_">
		<text transform="matrix(-0.9905 -0.1378 -0.1378 0.9905 143.8976 572.9764)" class="st3 st4 st5">Door45</text>
		<polyline class="st7" points="144,572.7 145.2,573.4 142,573 139.9,572.7 140,572.1 140.1,571.6 142.1,571.9 144.1,572.2 
			144,572.7 		"/>
		<line class="st7" x1="140.1" y1="571.6" x2="144" y2="573.3"/>
	</g>
	<g id="ACAD_PROXY_ENTITY-4_124_">
		<text transform="matrix(0.9905 0.1378 0.1378 -0.9905 90.2499 346.0137)" class="st3 st4 st5">Door45</text>
		<polyline class="st7" points="90.1,346.3 89,345.5 92.2,346 94.2,346.3 94.2,346.9 94.1,347.4 92,347.1 90,346.8 90.1,346.3 		"/>
		<line class="st7" x1="94.1" y1="347.4" x2="90.2" y2="345.7"/>
	</g>
	<g id="ACAD_PROXY_ENTITY-4_125_">
		<text transform="matrix(-0.9905 -0.1378 -0.1378 0.9905 94.3537 81.8336)" class="st3 st4 st5">Door45</text>
		<polyline class="st7" points="94.5,81.5 95.6,82.3 92.5,81.9 90.4,81.6 90.5,81 90.5,80.5 92.6,80.8 94.6,81 94.5,81.5 		"/>
		<line class="st7" x1="90.5" y1="80.5" x2="94.4" y2="82.1"/>
	</g>
	<g id="ACAD_PROXY_ENTITY-4_126_">
		<text transform="matrix(-0.1177 0.993 0.993 0.1177 166.7715 266.944)" class="st3 st4 st8">Door45</text>
		<polyline class="st7" points="166.5,266.8 167.2,265.7 166.8,268.8 166.6,270.9 166,270.9 165.5,270.8 165.7,268.7 166,266.7 
			166.5,266.8 		"/>
		<line class="st7" x1="165.5" y1="270.8" x2="167.1" y2="266.9"/>
	</g>
	<g id="ACAD_PROXY_ENTITY-4_127_">
		<text transform="matrix(-0.1034 0.9946 0.9946 0.1034 148.7068 607.5011)" class="st3 st4 st5">Door45</text>
		<polyline class="st7" points="148.4,607.3 149.1,606.2 148.8,609.4 148.6,611.5 148,611.4 147.5,611.4 147.7,609.3 147.9,607.3 
			148.4,607.3 		"/>
		<line class="st7" x1="147.5" y1="611.4" x2="149" y2="607.4"/>
	</g>
	<g id="ACAD_PROXY_ENTITY-4_128_">
		<text transform="matrix(-0.9934 0.1149 0.1149 0.9934 497.0618 111.1848)" class="st3 st4 st5">Door45</text>
		<polyline class="st7" points="497.2,110.9 498.4,111.3 495.2,111.7 493.1,112 493.1,111.4 493,110.9 495.2,110.6 497.1,110.4 
			497.2,110.9 		"/>
		<line class="st7" x1="493" y1="110.9" x2="497.2" y2="111.4"/>
	</g>
	<g id="ACAD_PROXY_ENTITY-4_129_">
		<text transform="matrix(0.1459 0.9893 -0.9893 0.1459 441.9577 266.5532)" class="st3 st4 st5">Door45</text>
		<polyline class="st7" points="442.2,266.3 442.7,266.3 443,268.2 443.3,270.3 442.8,270.4 442.2,270.5 441.9,268.4 441.5,265.2 
			442.2,266.3 		"/>
		<line class="st7" x1="441.7" y1="266.4" x2="443.3" y2="270.3"/>
	</g>
	<g id="ACAD_PROXY_ENTITY-4_130_">
		<text transform="matrix(0.9962 -8.689062e-02 -8.689062e-02 -0.9962 462.3945 284.7315)" class="st3 st4 st5">Door45</text>
		<polyline class="st7" points="462.2,285 461.1,284.6 464.2,284.2 466.4,284 466.4,284.6 466.4,285.2 464.2,285.4 462.4,285.5 
			462.2,285 		"/>
		<line class="st7" x1="466.4" y1="285.2" x2="462.2" y2="284.5"/>
	</g>
	<g id="ACAD_PROXY_ENTITY-4_131_">
		<text transform="matrix(0.9962 -8.689062e-02 -8.689062e-02 -0.9962 460.4535 266.4307)" class="st3 st4 st5">Door45</text>
		<polyline class="st7" points="460.3,266.7 459.1,266.3 462.3,265.9 464.4,265.7 464.4,266.3 464.4,266.9 462.3,267.1 460.4,267.2 
			460.3,266.7 		"/>
		<line class="st7" x1="464.4" y1="266.9" x2="460.3" y2="266.2"/>
	</g>
	<g id="ACAD_PROXY_ENTITY-4_132_">
		<text transform="matrix(-4.475922e-02 -0.999 -0.999 4.475922e-02 523.8231 360.7518)" class="st3 st4 st5">Door45</text>
		<polyline class="st7" points="524.1,360.9 523.7,362.1 523.3,358.8 523.2,356.7 523.8,356.8 524.4,356.8 524.5,359 524.6,360.9 
			524.1,360.9 		"/>
		<line class="st7" x1="524.4" y1="356.8" x2="523.6" y2="360.9"/>
	</g>
	<g id="ACAD_PROXY_ENTITY-4_133_">
		<text transform="matrix(0.9905 0.1378 0.1378 -0.9905 85.1555 584.274)" class="st3 st4 st5">Door45</text>
		<polyline class="st7" points="85,584.6 83.8,583.8 87,584.2 89.2,584.5 89,585.1 89,585.6 87,585.3 85,585.1 85,584.6 		"/>
		<line class="st7" x1="89" y1="585.6" x2="85" y2="584"/>
	</g>
	<g id="ACAD_PROXY_ENTITY-4_134_">
		<text transform="matrix(0.144 -0.9896 -0.9896 -0.144 73.2666 536.096)" class="st3 st4 st5">Door45</text>
		<polyline class="st7" points="73.6,536.3 72.8,537.4 73.2,534.2 73.5,532.1 74.1,532.2 74.6,532.3 74.3,534.3 74.1,536.3 
			73.6,536.3 		"/>
		<line class="st7" x1="74.6" y1="532.3" x2="73" y2="536.2"/>
	</g>
	<g id="ACAD_PROXY_ENTITY-4_135_">
		<text transform="matrix(0.144 -0.9896 -0.9896 -0.144 12.1933 529.3929)" class="st3 st4 st5">Door45</text>
		<polyline class="st7" points="12.5,529.6 11.7,530.7 12.1,527.5 12.4,525.4 13,525.5 13.5,525.6 13.2,527.6 13,529.6 12.5,529.6 
					"/>
		<line class="st7" x1="13.5" y1="525.6" x2="11.9" y2="529.5"/>
	</g>
</g>
<g id="guiderails-w2g">
	<line class="st9" x1="152.8" y1="96.2" x2="134.1" y2="268.3"/>
	<line class="st9" x1="71.9" y1="91" x2="204.8" y2="105.1"/>
	<line class="st9" x1="158.4" y1="103.2" x2="423.2" y2="103.2"/>
	<line class="st9" x1="510.9" y1="91.8" x2="394.9" y2="104.6"/>
	<line class="st9" x1="434.2" y1="94.3" x2="476" y2="479.4"/>
	<line class="st9" x1="537.9" y1="466.4" x2="472.6" y2="472.9"/>
	<line class="st9" x1="501.1" y1="541.4" x2="506.8" y2="592.4"/>
	<path class="st9" d="M496.2,473.2"/>
	<path class="st9" d="M470.8,456"/>
	<line class="st9" x1="524.5" y1="365.1" x2="535.7" y2="472.3"/>
	<line class="st9" x1="511.9" y1="588.9" x2="438.1" y2="597.3"/>
	<line class="st9" x1="440.9" y1="589" x2="441.1" y2="626.8"/>
	<line class="st9" x1="447.3" y1="623.5" x2="326.6" y2="623.5"/>
	<line class="st9" x1="344.3" y1="638" x2="159.7" y2="638"/>
	<line class="st9" x1="340.3" y1="621" x2="340.3" y2="640.7"/>
	<line class="st9" x1="164.8" y1="640.7" x2="164.8" y2="589.9"/>
	<line class="st9" x1="154.2" y1="550.9" x2="149.2" y2="600.9"/>
	<line class="st9" x1="124.6" y1="591.8" x2="169.2" y2="596.1"/>
	<line class="st9" x1="156.6" y1="553.6" x2="8.3" y2="536.3"/>
	<line class="st9" x1="103.9" y1="552.4" x2="113.7" y2="463.5"/>
	<line class="st9" x1="154.9" y1="254.2" x2="130.4" y2="479.5"/>
	<line class="st9" x1="106.6" y1="469.2" x2="134.3" y2="471.6"/>
	<line class="st9" x1="188.2" y1="262.5" x2="419.1" y2="262.5"/>
	<line class="st9" x1="512.9" y1="249.4" x2="380.9" y2="263.5"/>
	<line class="st9" x1="510" y1="234.2" x2="514.3" y2="275.1"/>
	<line class="st9" x1="91" y1="250.9" x2="217.4" y2="263.9"/>
	<line class="st9" x1="93.3" y1="246.6" x2="82.9" y2="346.1"/>
	<line class="st9" x1="109.4" y1="226.7" x2="105.6" y2="263.9"/>
	<line class="st9" x1="504.6" y1="88.4" x2="507.9" y2="121.2"/>
	<line class="st9" x1="557.6" y1="538.9" x2="492.8" y2="546.3"/>
	<line class="st9" x1="506.8" y1="466.4" x2="516.2" y2="550.3"/>
	<line class="st9" x1="546.1" y1="533.7" x2="550.3" y2="570.6"/>
	<line class="st9" x1="296.1" y1="245.7" x2="296.1" y2="264.9"/>
	<line class="st9" x1="309.3" y1="245.6" x2="309.3" y2="264.9"/>
	<line class="st9" x1="103.6" y1="80.9" x2="98.9" y2="122.2"/>
	<line class="st9" x1="239.4" y1="621" x2="239.4" y2="640.7"/>
	<line class="st9" x1="259.8" y1="621" x2="259.8" y2="642.6"/>
	<line class="st9" x1="39.1" y1="536.9" x2="34.8" y2="582.1"/>
	<line class="st9" x1="30.3" y1="577.7" x2="82.3" y2="583.6"/>
</g>
<g id="scale-w2g">
	<g id="ACAD_x5F_PROXY_x5F_ENTITY_52_">
		<line class="st10" x1="255.3" y1="332.9" x2="255.3" y2="325.3"/>
	</g>
</g>
<g id="outline-w2g">
	<g id="ACAD_x5F_PROXY_x5F_ENTITY_64_">
		<text transform="matrix(4.489659e-11 -1 1 4.489659e-11 520.5663 664.1719)" class="st11 st4 st12">Outline1</text>
		<polyline class="st13" points="520.4,664.3 520.1,664.3 520.1,663.2 520.1,662.2 520.4,662.2 520.7,662.2 520.7,663.2 
			520.7,664.3 520.4,664.3 		"/>
	</g>
	<g id="ACAD_x5F_PROXY_x5F_ENTITY_2_">
		<text transform="matrix(4.489659e-11 -1 1 4.489659e-11 381.0836 107.8506)" class="st11 st4 st12">Outline1</text>
		<polyline class="st13" points="380.9,108 380.6,108 380.6,106.9 380.6,105.8 380.9,105.8 381.2,105.8 381.2,106.9 381.2,108 
			380.9,108 		"/>
	</g>
	<g id="ACAD_x5F_PROXY_x5F_ENTITY_1_">
		<text transform="matrix(4.489659e-11 -1 1 4.489659e-11 406.0874 267.7744)" class="st11 st4 st12">Outline1</text>
		<polyline class="st13" points="405.9,267.9 405.6,267.9 405.6,266.8 405.6,265.8 405.9,265.8 406.2,265.8 406.2,266.8 
			406.2,267.9 405.9,267.9 		"/>
	</g>
</g>
</svg>
